<?xml version="1.0" encoding="UTF-8" standalone="no"?>
<!-- Created with Inkscape (http://www.inkscape.org/) -->

<svg
   xmlns:dc="http://purl.org/dc/elements/1.1/"
   xmlns:cc="http://creativecommons.org/ns#"
   xmlns:rdf="http://www.w3.org/1999/02/22-rdf-syntax-ns#"
   xmlns:svg="http://www.w3.org/2000/svg"
   xmlns="http://www.w3.org/2000/svg"
   xmlns:sodipodi="http://sodipodi.sourceforge.net/DTD/sodipodi-0.dtd"
   xmlns:inkscape="http://www.inkscape.org/namespaces/inkscape"
   width="154.75609mm"
   height="61.805012mm"
   viewBox="0 0 154.75609 61.805012"
   version="1.1"
   id="svg1638"
   sodipodi:docname="cc1312-stack.svg"
   inkscape:version="0.92.3 (2405546, 2018-03-11)">
  <defs
     id="defs1632" />
  <sodipodi:namedview
     id="base"
     pagecolor="#ffffff"
     bordercolor="#666666"
     borderopacity="1.0"
     inkscape:pageopacity="0.0"
     inkscape:pageshadow="2"
     inkscape:zoom="2.8"
     inkscape:cx="113.29677"
     inkscape:cy="82.9966"
     inkscape:document-units="mm"
     inkscape:current-layer="layer1"
     showgrid="false"
     inkscape:window-width="1366"
     inkscape:window-height="705"
     inkscape:window-x="0"
     inkscape:window-y="30"
     inkscape:window-maximized="1"
     fit-margin-top="0"
     fit-margin-left="0"
     fit-margin-right="0"
     fit-margin-bottom="0" />
  <metadata
     id="metadata1635">
    <rdf:RDF>
      <cc:Work
         rdf:about="">
        <dc:format>image/svg+xml</dc:format>
        <dc:type
           rdf:resource="http://purl.org/dc/dcmitype/StillImage" />
        <dc:title></dc:title>
      </cc:Work>
    </rdf:RDF>
  </metadata>
  <g
     inkscape:label="Layer 1"
     inkscape:groupmode="layer"
     id="layer1"
     transform="translate(-37.417353,-96.013261)">
    <path
       style="opacity:0.98000004;fill:#cccccc;fill-opacity:1;stroke:none;stroke-width:1.72489512;stroke-linecap:round;stroke-linejoin:round;stroke-miterlimit:4;stroke-dasharray:none;stroke-dashoffset:0;stroke-opacity:1"
       d="M 0 56.322266 L 0 112.39062 L 138.125 112.39062 L 138.125 56.322266 L 0 56.322266 z M 144.03711 56.322266 L 144.03711 112.39062 L 278.80273 112.39062 L 278.80273 56.322266 L 144.03711 56.322266 z M 37.128906 86.447266 L 40.257812 86.447266 L 40.257812 95.550781 C 40.257812 96.732181 40.538766 97.630634 41.097656 98.246094 C 41.663606 98.854524 42.490638 99.160156 43.580078 99.160156 C 44.697828 99.160156 45.556913 98.841898 46.158203 98.205078 C 46.759523 97.561348 47.060547 96.640852 47.060547 95.445312 L 47.060547 86.447266 L 50.191406 86.447266 L 50.191406 95.636719 C 50.191406 97.532649 49.604026 99.003772 48.429688 100.05078 C 47.262438 101.09071 45.618384 101.61133 43.496094 101.61133 C 41.437464 101.61133 39.858239 101.10804 38.761719 100.10352 C 37.672279 99.098952 37.128906 97.662502 37.128906 95.794922 L 37.128906 86.447266 z M 52.982422 86.447266 L 58.394531 86.447266 C 60.912991 86.447266 62.860744 87.084062 64.240234 88.357422 C 65.619724 89.623752 66.310547 91.440637 66.310547 93.810547 C 66.310547 95.352747 66.004854 96.700426 65.396484 97.853516 C 64.795164 98.999586 63.940748 99.877906 62.830078 100.48633 C 61.726488 101.09469 60.46026 101.39844 59.03125 101.39844 L 52.982422 101.39844 L 52.982422 86.447266 z M 68.6875 86.447266 L 75.404297 86.447266 C 77.194097 86.447266 78.56915 86.85982 79.53125 87.6875 C 80.50043 88.50814 80.986328 89.672868 80.986328 91.179688 C 80.986328 92.141806 80.766705 93.000884 80.328125 93.757812 C 79.889515 94.514772 79.260053 95.102121 78.439453 95.519531 C 77.625903 95.929831 76.65607 96.134766 75.53125 96.134766 L 71.816406 96.134766 L 71.816406 101.39844 L 68.6875 101.39844 L 68.6875 86.447266 z M 190.98047 86.705078 C 192.7349 86.705078 194.164 87.060208 195.26758 87.767578 C 196.37118 88.467928 197.14612 89.499914 197.5918 90.865234 L 194.83203 91.619141 C 194.59857 90.869281 194.13932 90.274556 193.45312 89.835938 C 192.774 89.390258 191.96971 89.167969 191.04297 89.167969 C 189.6281 89.167969 188.55409 89.605192 187.81836 90.482422 C 187.08969 91.359652 186.72461 92.645168 186.72461 94.335938 C 186.72461 96.054986 187.09973 97.365944 187.84961 98.271484 C 188.60658 99.176984 189.69524 99.630859 191.11719 99.630859 C 193.00603 99.630859 194.31898 98.682969 195.05469 96.787109 L 197.78125 97.816406 C 197.19407 99.259546 196.33233 100.33361 195.19336 101.04102 C 194.06148 101.74141 192.70184 102.0918 191.11719 102.0918 C 188.7119 102.0918 186.85294 101.41298 185.53711 100.05469 C 184.22837 98.689376 183.57227 96.783636 183.57227 94.335938 C 183.57227 91.881138 184.20636 89.995496 185.47266 88.679688 C 186.73896 87.363848 188.57521 86.705078 190.98047 86.705078 z M 155.14453 86.927734 L 162.61523 86.927734 C 164.39795 86.927734 165.77496 87.314838 166.74414 88.085938 C 167.71333 88.849966 168.19727 89.948656 168.19727 91.384766 C 168.19727 92.431776 167.90086 93.337534 167.30664 94.101562 C 166.71239 94.858522 165.90811 95.357166 164.89648 95.597656 L 168.93945 101.88086 L 165.41602 101.88086 L 161.94727 96.203125 L 158.27539 96.203125 L 158.27539 101.88086 L 155.14453 101.88086 L 155.14453 86.927734 z M 170.84961 86.927734 L 181.875 86.927734 L 181.875 89.347656 L 173.98047 89.347656 L 173.98047 93.974609 L 181.63086 93.974609 L 181.63086 96.394531 L 173.98047 96.394531 L 173.98047 101.88086 L 170.84961 101.88086 L 170.84961 86.927734 z M 206.03711 86.927734 L 215.02539 86.927734 L 215.02539 89.146484 L 208.74414 89.146484 L 208.5 92.923828 C 209.22156 92.287168 210.12271 91.96875 211.20508 91.96875 C 212.62703 91.96875 213.76241 92.410622 214.61133 93.294922 C 215.46731 94.179212 215.89648 95.381344 215.89648 96.902344 C 215.89648 98.486984 215.40058 99.750532 214.41016 100.69141 C 213.42685 101.62522 212.07649 102.0918 210.35742 102.0918 C 208.85767 102.0918 207.65358 101.75609 206.74805 101.08398 C 205.84962 100.40484 205.29426 99.424961 205.08203 98.144531 L 208.06445 97.900391 C 208.22007 98.537091 208.49641 99.000936 208.89258 99.291016 C 209.28873 99.580906 209.78734 99.726562 210.38867 99.726562 C 211.13147 99.726562 211.72156 99.489615 212.16016 99.015625 C 212.60584 98.541635 212.82812 97.858167 212.82812 96.966797 C 212.82812 96.181527 212.62049 95.554771 212.20312 95.087891 C 211.78577 94.613901 211.20105 94.376953 210.45117 94.376953 C 209.62349 94.376953 208.94929 94.70013 208.42578 95.34375 L 205.51758 95.34375 L 206.03711 86.927734 z M 223.1543 86.927734 L 226.48633 86.927734 L 226.48633 96.617188 L 228.48047 96.617188 L 228.48047 98.833984 L 226.48633 98.833984 L 226.48633 101.88086 L 223.64258 101.88086 L 223.64258 98.833984 L 216.83984 98.833984 L 216.83984 96.595703 L 223.1543 86.927734 z M 235.25195 86.927734 L 238.58203 86.927734 L 238.58203 96.617188 L 240.57812 96.617188 L 240.57812 98.833984 L 238.58203 98.833984 L 238.58203 101.88086 L 235.73828 101.88086 L 235.73828 98.833984 L 228.9375 98.833984 L 228.9375 96.595703 L 235.25195 86.927734 z M 247.34766 86.927734 L 250.67969 86.927734 L 250.67969 96.617188 L 252.67578 96.617188 L 252.67578 98.833984 L 250.67969 98.833984 L 250.67969 101.88086 L 247.83594 101.88086 L 247.83594 98.833984 L 241.03516 98.833984 L 241.03516 96.595703 L 247.34766 86.927734 z M 56.111328 88.865234 L 56.111328 98.978516 L 58.765625 98.978516 C 60.109745 98.978516 61.178403 98.514631 61.970703 97.587891 C 62.763033 96.661151 63.158203 95.402257 63.158203 93.810547 C 63.158203 92.204667 62.74102 90.980522 61.90625 90.138672 C 61.07148 89.289752 59.879348 88.865234 58.330078 88.865234 L 56.111328 88.865234 z M 71.816406 88.876953 L 71.816406 93.726562 L 75.138672 93.726562 C 76.001742 93.726562 76.665914 93.514474 77.132812 93.089844 C 77.599722 92.658294 77.833984 92.038892 77.833984 91.232422 C 77.833984 89.661912 76.908156 88.876953 75.054688 88.876953 L 71.816406 88.876953 z M 158.27539 89.359375 L 158.27539 93.773438 L 162.37109 93.773438 C 163.2483 93.773438 163.91442 93.575856 164.36719 93.179688 C 164.81993 92.783518 165.04492 92.228192 165.04492 91.513672 C 165.04492 90.077602 164.12643 89.359375 162.28711 89.359375 L 158.27539 89.359375 z M 223.73828 89.625 C 223.5543 90.02113 223.22129 90.59389 222.74023 91.34375 L 219.26953 96.617188 L 223.64258 96.617188 L 223.64258 91.726562 C 223.64258 91.344524 223.65263 90.930095 223.67383 90.484375 C 223.70213 90.038695 223.72408 89.75233 223.73828 89.625 z M 235.83398 89.625 C 235.64999 90.02113 235.31894 90.59389 234.83789 91.34375 L 231.36719 96.617188 L 235.73828 96.617188 L 235.73828 91.726562 C 235.73828 91.344524 235.74998 90.930095 235.77148 90.484375 C 235.79978 90.038695 235.81978 89.75233 235.83398 89.625 z M 247.92969 89.625 C 247.92963 89.62557 247.92975 89.627906 247.92969 89.628906 C 247.93018 89.627906 247.93064 89.626 247.93164 89.625 L 247.92969 89.625 z M 247.92969 89.628906 C 247.74533 90.024926 247.41337 90.59588 246.93359 91.34375 L 243.46484 96.617188 L 247.83594 96.617188 L 247.83594 91.726562 C 247.83594 91.344524 247.84839 90.930095 247.86719 90.484375 C 247.89349 90.040705 247.91569 89.757096 247.92969 89.628906 z M 0 118.30273 L 0 167.39258 L 138.125 167.39258 L 138.125 118.30273 L 0 118.30273 z M 144.03711 118.30273 L 144.03711 167.39258 L 278.80273 167.39258 L 278.80273 118.30273 L 144.03711 118.30273 z M 170.3457 134.53516 C 172.10013 134.53516 173.52923 134.88832 174.63281 135.5957 C 175.73642 136.29608 176.50942 137.32807 176.95508 138.69336 L 174.19727 139.44727 C 173.96381 138.69738 173.50261 138.10267 172.81641 137.66406 C 172.13727 137.21838 171.33495 136.99609 170.4082 136.99609 C 168.99338 136.99609 167.91737 137.43531 167.18164 138.3125 C 166.45299 139.18972 166.08984 140.47329 166.08984 142.16406 C 166.08984 143.8831 166.46495 145.19602 167.21484 146.10156 C 167.9718 147.00706 169.06047 147.45898 170.48242 147.45898 C 172.37127 147.45898 173.6842 146.51112 174.41992 144.61523 L 177.14648 145.64453 C 176.55929 147.08766 175.69561 148.16368 174.55664 148.87109 C 173.42476 149.57147 172.06707 149.92187 170.48242 149.92188 C 168.07714 149.92188 166.2162 149.24109 164.90039 147.88281 C 163.59165 146.51749 162.9375 144.61176 162.9375 142.16406 C 162.9375 139.70925 163.5716 137.82361 164.83789 136.50781 C 166.10419 135.19197 167.94044 134.53516 170.3457 134.53516 z M 228.83594 134.53516 C 230.10224 134.53516 231.09949 134.81406 231.82812 135.37305 C 232.56384 135.93193 233.08254 136.79832 233.38672 137.97266 L 230.57617 138.36523 C 230.30737 137.38191 229.70528 136.89062 228.77148 136.89062 C 227.97207 136.89062 227.34264 137.29043 226.88281 138.08984 C 226.43005 138.88925 226.20313 140.1014 226.20312 141.72852 C 226.52147 141.19795 226.96335 140.79078 227.5293 140.50781 C 228.09523 140.22472 228.73666 140.08398 229.45117 140.08398 C 230.78821 140.08398 231.84487 140.5085 232.62305 141.35742 C 233.40122 142.20634 233.79102 143.3591 233.79102 144.81641 C 233.79102 146.40816 233.3445 147.657 232.45312 148.5625 C 231.56178 149.46799 230.33222 149.92187 228.76172 149.92188 C 227.00021 149.92188 225.64522 149.30518 224.69727 148.07422 C 223.75638 146.83624 223.28516 145.00462 223.28516 142.57812 C 223.28516 139.91115 223.76371 137.90467 224.71875 136.56055 C 225.68085 135.20933 227.0532 134.53516 228.83594 134.53516 z M 157.47266 134.75586 L 160.60352 134.75586 L 160.60352 149.70898 L 157.47266 149.70898 L 157.47266 134.75586 z M 179.20508 134.75586 L 183.39648 134.75586 L 186.07031 143.11914 L 186.30469 143.92578 L 186.81445 145.92969 L 187.48242 143.5332 L 190.23047 134.75586 L 194.40039 134.75586 L 194.40039 149.70898 L 191.62109 149.70898 L 191.62109 140.64648 L 191.62109 140.03125 C 191.62709 139.82602 191.6629 138.945 191.72656 137.38867 C 191.22431 139.29166 190.85382 140.6173 190.61328 141.36719 L 187.91797 149.70898 L 185.68945 149.70898 L 182.99414 141.36719 L 181.85742 137.38867 C 181.94222 139.02989 181.98633 140.11591 181.98633 140.64648 L 181.98633 149.70898 L 179.20508 149.70898 L 179.20508 134.75586 z M 197.33008 134.75586 L 204.04688 134.75586 C 205.83666 134.75586 207.21173 135.17034 208.17383 135.99805 C 209.14301 136.81866 209.62891 137.98341 209.62891 139.49023 C 209.62891 140.45235 209.40932 141.31142 208.9707 142.06836 C 208.53211 142.82533 207.90265 143.41271 207.08203 143.83008 C 206.26848 144.24043 205.29865 144.44531 204.17383 144.44531 L 200.46094 144.44531 L 200.46094 149.70898 L 197.33008 149.70898 L 197.33008 134.75586 z M 200.46094 137.18555 L 200.46094 142.03516 L 203.78125 142.03516 C 204.64432 142.03516 205.31042 141.82273 205.77734 141.39844 C 206.24423 140.9669 206.47656 140.34945 206.47656 139.54297 C 206.47656 137.97251 205.55073 137.18555 203.69727 137.18555 L 200.46094 137.18555 z M 6.6308594 137.29492 C 7.6408421 137.29492 8.4364149 137.51714 9.0175781 137.96289 C 9.6043837 138.40864 10.019097 139.10048 10.261719 140.03711 L 8.0195312 140.34961 C 7.8051215 139.56532 7.3248699 139.17383 6.5800781 139.17383 C 5.9424913 139.17383 5.4409723 139.49132 5.0742188 140.12891 C 4.7131076 140.76649 4.5332031 141.73546 4.5332031 143.0332 C 4.7871094 142.61003 5.1384548 142.28429 5.5898438 142.05859 C 6.0412327 141.8329 6.5531683 141.7207 7.1230469 141.7207 C 8.1894532 141.7207 9.031684 142.05924 9.6523438 142.73633 C 10.273004 143.41341 10.583984 144.33377 10.583984 145.49609 C 10.583984 146.76563 10.228516 147.7602 9.5175781 148.48242 C 8.8066406 149.20464 7.8248699 149.56641 6.5722656 149.56641 C 5.1673176 149.56641 4.0861546 149.07552 3.3300781 148.09375 C 2.579644 147.10634 2.2050781 145.64431 2.2050781 143.70898 C 2.2050781 141.58181 2.5859374 139.9822 3.3476562 138.91016 C 4.1150174 137.83247 5.2089842 137.29492 6.6308594 137.29492 z M 130.60547 137.29492 C 131.61545 137.29492 132.41102 137.51714 132.99219 137.96289 C 133.57899 138.40864 133.99371 139.10048 134.23633 140.03711 L 131.99414 140.34961 C 131.77973 139.56532 131.29948 139.17383 130.55469 139.17383 C 129.9171 139.17383 129.41558 139.49132 129.04883 140.12891 C 128.68772 140.76649 128.50586 141.73546 128.50586 143.0332 C 128.75977 142.61003 129.11306 142.28429 129.56445 142.05859 C 130.01584 141.8329 130.52582 141.7207 131.0957 141.7207 C 132.16211 141.7207 133.00629 142.05924 133.62695 142.73633 C 134.24761 143.41341 134.55859 144.33377 134.55859 145.49609 C 134.55859 146.76563 134.20313 147.7602 133.49219 148.48242 C 132.78125 149.20464 131.79948 149.56641 130.54688 149.56641 C 129.14193 149.56641 128.06076 149.07552 127.30469 148.09375 C 126.55425 147.10634 126.17969 145.64431 126.17969 143.70898 C 126.17969 141.58181 126.56055 139.9822 127.32227 138.91016 C 128.08963 137.83247 129.18359 137.29492 130.60547 137.29492 z M 12.378906 137.47266 L 14.875 137.47266 L 14.875 147.4668 L 21.273438 147.4668 L 21.273438 149.39648 L 12.378906 149.39648 L 12.378906 137.47266 z M 32.427734 137.47266 L 34.958984 137.47266 L 36.685547 145.17383 L 37.074219 147.03516 C 37.232205 146.25087 37.384549 145.50391 37.53125 144.79297 C 37.683594 144.07639 38.248481 141.63672 39.224609 137.47266 L 42.017578 137.47266 L 43.523438 143.82031 C 43.641927 144.29427 43.842882 145.36502 44.125 147.03516 L 44.335938 146.05469 L 44.785156 144.10742 L 46.224609 137.47266 L 48.753906 137.47266 L 45.673828 149.39648 L 42.710938 149.39648 L 41.095703 142.5 C 40.89822 141.6875 40.73112 140.83702 40.595703 139.95117 C 40.460286 140.69032 40.35026 141.25521 40.265625 141.64453 C 40.18099 142.02821 39.580078 144.61176 38.462891 149.39648 L 35.5 149.39648 L 32.427734 137.47266 z M 49.921875 137.47266 L 55.279297 137.47266 C 56.706814 137.47266 57.804904 137.80273 58.572266 138.46289 C 59.345269 139.1174 59.732422 140.04427 59.732422 141.24609 C 59.732422 142.01345 59.556858 142.699 59.207031 143.30273 C 58.857205 143.90647 58.355686 144.37609 57.701172 144.70898 C 57.0523 145.03624 56.277995 145.19922 55.380859 145.19922 L 52.419922 145.19922 L 52.419922 149.39648 L 49.921875 149.39648 L 49.921875 137.47266 z M 63.835938 137.47266 L 66.78125 137.47266 L 71.115234 149.39648 L 68.644531 149.39648 L 67.585938 146.34961 L 63.041016 146.34961 L 61.982422 149.39648 L 59.486328 149.39648 L 63.835938 137.47266 z M 72.740234 137.47266 L 75.591797 137.47266 L 80.865234 146.73047 C 80.763672 145.87847 80.712891 145.10395 80.712891 144.4043 L 80.712891 137.47266 L 82.929688 137.47266 L 82.929688 149.39648 L 80.001953 149.39648 L 74.804688 140.21484 C 74.90625 141.10634 74.957031 141.82161 74.957031 142.36328 L 74.957031 149.39648 L 72.740234 149.39648 L 72.740234 137.47266 z M 100.66992 137.47266 L 103.16602 137.47266 L 103.16602 149.39648 L 100.66992 149.39648 L 100.66992 137.47266 z M 105.47656 137.47266 L 110.83398 137.47266 C 112.2615 137.47266 113.35959 137.80273 114.12695 138.46289 C 114.89996 139.1174 115.28711 140.04427 115.28711 141.24609 C 115.28711 142.01345 115.11155 142.699 114.76172 143.30273 C 114.41189 143.90647 113.91037 144.37609 113.25586 144.70898 C 112.60699 145.03624 111.83268 145.19922 110.93555 145.19922 L 107.97461 145.19922 L 107.97461 149.39648 L 105.47656 149.39648 L 105.47656 137.47266 z M 210.47656 138.22656 L 213.62891 138.22656 L 215.63477 144.64648 C 215.74093 145.00024 215.99251 145.88397 216.38867 147.29883 C 216.45927 147.00894 216.60298 146.50017 216.82227 145.77148 C 217.04159 145.04282 217.85589 142.5277 219.26367 138.22656 L 222.38281 138.22656 L 218.15039 149.70898 L 214.58398 149.70898 L 210.47656 138.22656 z M 65.308594 139.30859 L 65.257812 139.49414 C 65.201389 139.69727 65.133681 139.9299 65.054688 140.18945 C 64.975694 140.449 64.491103 141.87522 63.599609 144.4707 L 67.027344 144.4707 L 65.851562 141.04297 L 65.486328 139.89258 L 65.308594 139.30859 z M 52.419922 139.41016 L 52.419922 143.27734 L 55.068359 143.27734 C 55.756727 143.27734 56.28776 143.10807 56.660156 142.76953 C 57.032552 142.42535 57.21875 141.93229 57.21875 141.28906 C 57.21875 140.03646 56.478299 139.41016 55 139.41016 L 52.419922 139.41016 z M 107.97461 139.41016 L 107.97461 143.27734 L 110.62305 143.27734 C 111.31141 143.27734 111.84245 143.10807 112.21484 142.76953 C 112.58724 142.42535 112.77344 141.93229 112.77344 141.28906 C 112.77344 140.03646 112.03299 139.41016 110.55469 139.41016 L 107.97461 139.41016 z M 27.121094 140.07031 C 28.61632 140.07031 29.756727 140.47873 30.541016 141.29688 C 31.330946 142.10938 31.726562 143.28147 31.726562 144.81055 C 31.726562 146.29449 31.314019 147.45833 30.490234 148.30469 C 29.66645 149.1454 28.526042 149.56641 27.070312 149.56641 C 25.642795 149.56641 24.523438 149.14323 23.710938 148.29688 C 22.898437 147.45052 22.492188 146.28885 22.492188 144.81055 C 22.492188 143.33789 22.898437 142.18056 23.710938 141.33984 C 24.523438 140.49349 25.659722 140.07031 27.121094 140.07031 z M 115.96289 140.24023 L 118.47656 140.24023 L 120.07617 145.35938 C 120.16081 145.64149 120.36176 146.34809 120.67773 147.47656 C 120.73416 147.24523 120.85048 146.83898 121.02539 146.25781 C 121.2003 145.67665 121.84787 143.67079 122.9707 140.24023 L 125.45898 140.24023 L 122.08203 149.39648 L 119.23828 149.39648 L 115.96289 140.24023 z M 27.15625 141.70312 C 25.711805 141.70312 24.988281 142.7398 24.988281 144.81055 C 24.988281 145.83181 25.163845 146.61046 25.513672 147.14648 C 25.869141 147.67687 26.379123 147.94141 27.044922 147.94141 C 28.506294 147.94141 29.238281 146.89822 29.238281 144.81055 C 29.238281 143.72157 29.060547 142.93034 28.705078 142.43945 C 28.349609 141.94857 27.833333 141.70312 27.15625 141.70312 z M 228.5918 142.2793 C 227.9339 142.2793 227.40594 142.49173 227.00977 142.91602 C 226.61362 143.33339 226.41602 143.88875 226.41602 144.58203 C 226.41602 145.45219 226.62092 146.17504 227.03125 146.74805 C 227.44864 147.31404 227.99395 147.5957 228.66602 147.5957 C 229.33807 147.5957 229.86139 147.3588 230.23633 146.88477 C 230.61126 146.40375 230.79883 145.74224 230.79883 144.90039 C 230.79883 144.05147 230.60117 143.40466 230.20508 142.95898 C 229.816 142.50623 229.27802 142.2793 228.5918 142.2793 z M 6.4375 143.47266 C 5.9127604 143.47266 5.4917535 143.64193 5.1757812 143.98047 C 4.859809 144.31337 4.7011719 144.75564 4.7011719 145.30859 C 4.7011719 146.0026 4.8661024 146.57812 5.1933594 147.03516 C 5.5262587 147.48655 5.9600694 147.71289 6.4960938 147.71289 C 7.0321181 147.71289 7.4490017 147.52452 7.7480469 147.14648 C 8.047092 146.7628 8.1972656 146.23394 8.1972656 145.5625 C 8.1972656 144.88542 8.0386285 144.36914 7.7226562 144.01367 C 7.4123264 143.65256 6.9848091 143.47266 6.4375 143.47266 z M 130.41016 143.47266 C 129.88542 143.47266 129.46636 143.64193 129.15039 143.98047 C 128.83442 144.31337 128.67578 144.75564 128.67578 145.30859 C 128.67578 146.0026 128.83876 146.57812 129.16602 147.03516 C 129.49891 147.48655 129.93468 147.71289 130.4707 147.71289 C 131.00673 147.71289 131.42361 147.52452 131.72266 147.14648 C 132.0217 146.7628 132.17188 146.23394 132.17188 145.5625 C 132.17188 144.88542 132.01324 144.36914 131.69727 144.01367 C 131.38694 143.65256 130.95747 143.47266 130.41016 143.47266 z M 89.591797 143.87109 L 93.992188 143.87109 L 93.992188 145.93555 L 89.591797 145.93555 L 89.591797 143.87109 z M 0 173.30664 L 0 233.59375 L 278.80273 233.59375 L 278.80273 173.30664 L 0 173.30664 z M 122.92383 188.66211 C 124.54385 188.66211 125.78537 189.00979 126.64844 189.70312 C 127.51858 190.38933 127.95312 191.36919 127.95312 192.64258 C 127.95312 193.45613 127.70615 194.16967 127.21094 194.78516 C 126.72281 195.40062 126.06402 195.79047 125.23633 195.95312 L 125.23633 195.99609 C 126.19844 196.15181 126.95136 196.54689 127.49609 197.18359 C 128.04788 197.81318 128.32422 198.62754 128.32422 199.625 C 128.32422 201.02573 127.86031 202.11442 126.93359 202.89258 C 126.00685 203.66368 124.6839 204.04883 122.96484 204.04883 C 121.25992 204.04883 119.93697 203.66368 118.99609 202.89258 C 118.06227 202.12148 117.5957 201.04011 117.5957 199.64648 C 117.5957 198.69143 117.87205 197.88717 118.42383 197.23633 C 118.97563 196.57843 119.71585 196.17126 120.64258 196.01562 L 120.64258 195.97461 C 119.83611 195.79772 119.18463 195.39791 118.68945 194.77539 C 118.19425 194.15282 117.94727 193.43467 117.94727 192.62109 C 117.94727 191.39724 118.37716 190.432 119.24023 189.72461 C 120.11037 189.01715 121.33919 188.66211 122.92383 188.66211 z M 135.08398 188.66211 C 136.85255 188.66211 138.14618 189.30355 138.9668 190.58398 C 139.78742 191.86445 140.19922 193.78751 140.19922 196.35547 C 140.19922 198.88103 139.76273 200.79595 138.89258 202.09766 C 138.02952 203.39933 136.73321 204.04883 135 204.04883 C 131.57603 204.04883 129.86328 201.48437 129.86328 196.35547 C 129.86328 194.56568 130.05084 193.10644 130.42578 191.97461 C 130.80071 190.84271 131.36341 190.00638 132.11328 189.46875 C 132.86316 188.93111 133.85304 188.66211 135.08398 188.66211 z M 147.07422 188.66211 C 148.68718 188.66211 149.926 189.0298 150.78906 189.76562 C 151.65213 190.50134 152.08398 191.53525 152.08398 192.86523 C 152.08398 193.56558 151.94578 194.19772 151.66992 194.76367 C 151.39402 195.32961 151.04089 195.85488 150.60938 196.33594 C 150.17785 196.80993 149.69659 197.25451 149.16602 197.67188 C 148.64251 198.08923 148.13191 198.49645 147.63672 198.89258 C 147.14151 199.28879 146.6896 199.68853 146.2793 200.0918 C 145.87606 200.49504 145.575 200.92687 145.37695 201.38672 L 152.31641 201.38672 L 152.31641 203.83789 L 141.85352 203.83789 L 141.85352 201.76758 C 142.2426 200.9116 142.79525 200.07725 143.50977 199.26367 C 144.23133 198.45012 145.13713 197.6011 146.22656 196.7168 C 147.27358 195.86788 148.00449 195.16704 148.42188 194.61523 C 148.84632 194.06346 149.05859 193.52276 149.05859 192.99219 C 149.05859 191.69049 148.40445 191.03906 147.0957 191.03906 C 146.45903 191.03906 145.97044 191.21408 145.63086 191.56055 C 145.29838 191.89995 145.0834 192.41145 144.98438 193.09766 L 141.98047 192.92969 C 142.15028 191.54314 142.66819 190.48456 143.53125 189.75586 C 144.4014 189.02727 145.58155 188.66406 147.07422 188.66406 L 147.07422 188.66211 z M 62.755859 188.88672 L 65.886719 188.88672 L 65.886719 203.83789 L 62.755859 203.83789 L 62.755859 188.88672 z M 68.783203 188.88672 L 80.541016 188.88672 L 80.541016 191.30469 L 71.914062 191.30469 L 71.914062 195.0625 L 79.894531 195.0625 L 79.894531 197.48047 L 71.914062 197.48047 L 71.914062 201.41797 L 80.976562 201.41797 L 80.976562 203.83789 L 68.783203 203.83789 L 68.783203 188.88672 z M 83.300781 188.88672 L 95.056641 188.88672 L 95.056641 191.30469 L 86.429688 191.30469 L 86.429688 195.0625 L 94.410156 195.0625 L 94.410156 197.48047 L 86.429688 197.48047 L 86.429688 201.41797 L 95.492188 201.41797 L 95.492188 203.83789 L 83.300781 203.83789 L 83.300781 188.88672 z M 97.816406 188.88672 L 109.57422 188.88672 L 109.57422 191.30469 L 100.94727 191.30469 L 100.94727 195.0625 L 108.92578 195.0625 L 108.92578 197.48047 L 100.94727 197.48047 L 100.94727 201.41797 L 110.00977 201.41797 L 110.00977 203.83789 L 97.816406 203.83789 L 97.816406 188.88672 z M 164.45703 188.88672 L 167.2793 188.88672 L 167.2793 201.61914 L 170.70703 201.61914 L 170.70703 203.83789 L 160.59375 203.83789 L 160.59375 201.61914 L 164.29688 201.61914 L 164.29688 191.42188 L 160.71094 193.66211 L 160.71094 191.31641 L 164.45703 188.88672 z M 172.94531 188.88672 L 181.93359 188.88672 L 181.93359 191.10352 L 175.65234 191.10352 L 175.4082 194.88086 C 176.12979 194.24422 177.03091 193.92578 178.11328 193.92578 C 179.53521 193.92578 180.67062 194.36765 181.51953 195.25195 C 182.37553 196.13624 182.80469 197.34038 182.80469 198.86133 C 182.80469 200.44598 182.30876 201.70757 181.31836 202.64844 C 180.33503 203.58225 178.98274 204.04883 177.26367 204.04883 C 175.76392 204.04883 174.56176 203.7131 173.65625 203.04102 C 172.75781 202.36188 172.20245 201.38202 171.99023 200.10156 L 174.97266 199.85742 C 175.1283 200.49412 175.40463 200.95801 175.80078 201.24805 C 176.19695 201.53794 176.69557 201.68359 177.29688 201.68359 C 178.03967 201.68359 178.62974 201.44665 179.06836 200.97266 C 179.51404 200.49867 179.73633 199.8152 179.73633 198.92383 C 179.73633 198.1386 179.5287 197.51378 179.11133 197.04688 C 178.69395 196.57289 178.10923 196.33594 177.35938 196.33594 C 176.53168 196.33594 175.85746 196.65716 175.33398 197.30078 L 172.42578 197.30078 L 172.94531 188.88672 z M 196.08984 188.88672 L 199.42188 188.88672 L 199.42188 198.57422 L 201.41602 198.57422 L 201.41602 200.79297 L 199.42188 200.79297 L 199.42188 203.83789 L 196.57812 203.83789 L 196.57812 200.79297 L 189.77539 200.79297 L 189.77539 198.55273 L 196.08984 188.88672 z M 122.92383 190.75391 C 121.6363 190.75391 120.99219 191.43542 120.99219 192.80078 C 120.99219 194.22978 121.64364 194.94531 122.94531 194.94531 C 123.59615 194.94531 124.08009 194.77972 124.39844 194.44727 C 124.72386 194.11467 124.88672 193.56481 124.88672 192.80078 C 124.88672 192.09336 124.72386 191.57737 124.39844 191.25195 C 124.07302 190.91935 123.58174 190.75391 122.92383 190.75391 z M 135.0625 190.99805 C 134.46119 190.99805 134.00463 191.16818 133.69336 191.50781 C 133.38918 191.84041 133.16957 192.38835 133.03516 193.15234 C 132.90783 193.9093 132.8457 194.97793 132.8457 196.35742 C 132.8457 197.72277 132.9124 198.78949 133.04688 199.56055 C 133.18832 200.32458 133.40796 200.8726 133.70508 201.20508 C 134.00926 201.53768 134.44651 201.70508 135.01953 201.70508 C 135.58548 201.70508 136.02198 201.53206 136.32617 201.18555 C 136.63746 200.83179 136.85973 200.26915 136.99414 199.49805 C 137.13561 198.72695 137.20703 197.68033 137.20703 196.35742 C 137.20703 194.97793 137.13833 193.90461 137.00391 193.14062 C 136.86947 192.37661 136.65455 191.82854 136.35742 191.49609 C 136.06032 191.16349 135.62845 190.99805 135.0625 190.99805 z M 196.67383 191.58203 C 196.48984 191.97816 196.15684 192.55088 195.67578 193.30078 L 192.20508 198.57422 L 196.57812 198.57422 L 196.57812 193.68164 C 196.57812 193.29964 196.58818 192.88709 196.60938 192.44141 C 196.63766 191.99573 196.65963 191.70936 196.67383 191.58203 z M 206.87109 192.13281 C 208.54062 192.13281 209.69608 192.82365 210.33984 194.20312 L 210.39258 194.20312 C 210.39258 193.95558 210.40735 193.61781 210.43555 193.19336 C 210.47065 192.76891 210.50745 192.48987 210.54297 192.35547 L 213.36523 192.35547 C 213.32273 193.11951 213.30078 194.00525 213.30078 195.00977 L 213.30078 203.48828 C 213.30078 205.12247 212.83885 206.35663 211.91211 207.19141 C 210.98539 208.02616 209.63576 208.44336 207.86719 208.44336 C 206.46647 208.44336 205.33843 208.17444 204.48242 207.63672 C 203.63351 207.10615 203.11019 206.34586 202.91211 205.35547 L 205.89453 205.00391 C 206.0007 205.46377 206.22757 205.82615 206.57422 206.08789 C 206.92795 206.34981 207.38719 206.48047 207.95312 206.48047 C 208.78082 206.48047 209.38556 206.22413 209.76758 205.71484 C 210.14958 205.20547 210.33984 204.44991 210.33984 203.44531 L 210.33984 202.83984 L 210.36133 201.70508 L 210.33984 201.70508 C 209.68193 203.11284 208.45239 203.81641 206.64844 203.81641 C 205.3114 203.81641 204.27479 203.31315 203.53906 202.30859 C 202.80334 201.30403 202.43555 199.86956 202.43555 198.00195 C 202.43555 196.12723 202.81337 194.67886 203.57031 193.66016 C 204.32727 192.64147 205.42792 192.13281 206.87109 192.13281 z M 207.93164 194.18164 C 206.33991 194.18164 205.54492 195.45519 205.54492 198.00195 C 205.54492 200.49916 206.33259 201.74805 207.91016 201.74805 C 208.70248 201.74805 209.30723 201.41782 209.72461 200.75977 C 210.14906 200.09476 210.36133 199.15428 210.36133 197.9375 C 210.36133 196.75609 210.14904 195.83563 209.72461 195.17773 C 209.30723 194.51276 208.70982 194.18164 207.93164 194.18164 z M 122.90234 197.03516 C 122.18076 197.03516 121.62542 197.24012 121.23633 197.65039 C 120.85432 198.06065 120.66211 198.65277 120.66211 199.42383 C 120.66211 200.3011 120.85433 200.94051 121.23633 201.34375 C 121.61834 201.74698 122.20108 201.94922 122.98633 201.94922 C 123.75743 201.94922 124.32476 201.74713 124.68555 201.34375 C 125.05341 200.94051 125.23633 200.2864 125.23633 199.38086 C 125.23633 197.81748 124.45868 197.03516 122.90234 197.03516 z M 154.67188 200.60156 L 157.74023 200.60156 L 157.74023 203.83789 L 154.67188 203.83789 L 154.67188 200.60156 z M 184.89453 200.60156 L 187.96094 200.60156 L 187.96094 203.83789 L 184.89453 203.83789 L 184.89453 200.60156 z "
       transform="matrix(0.26458333,0,0,0.26458333,37.417353,96.013261)"
       id="rect2213" />
    <path
       style="opacity:0.98000004;fill:#cccccc;fill-opacity:1;stroke:none;stroke-width:5.91496086;stroke-linecap:round;stroke-linejoin:round;stroke-miterlimit:4;stroke-dasharray:none;stroke-dashoffset:0;stroke-opacity:1"
       d="m 141.41992,362.88477 v 50.26171 h 278.80274 v -50.26171 z m 119.52735,13.70507 c 2.90798,0 5.1786,0.83334 6.81054,2.5 1.64063,1.66667 2.46094,3.95335 2.46094,6.86133 0,1.90972 -0.3776,3.58941 -1.13281,5.03906 -0.75521,1.44966 -1.83594,2.56142 -3.24219,3.33399 -1.40625,0.76389 -3.04688,1.14648 -4.92187,1.14648 -2.88195,0 -5.14454,-0.84635 -6.78516,-2.53906 -1.63195,-1.70139 -2.44727,-4.02908 -2.44727,-6.98047 0,-2.94271 0.81532,-5.23741 2.44727,-6.88672 1.63194,-1.6493 3.90256,-2.47461 6.81055,-2.47461 z m 69.63476,0 c 1.97917,0 3.49957,0.45074 4.55859,1.35352 1.05903,0.90278 1.5879,2.17079 1.5879,3.80273 0,0.85938 -0.16928,1.63564 -0.50782,2.33008 -0.33854,0.69445 -0.77322,1.33746 -1.30273,1.92774 -0.52952,0.58159 -1.11849,1.12847 -1.76953,1.64062 -0.64236,0.51215 -1.26736,1.01194 -1.875,1.49805 -0.60764,0.48611 -1.1645,0.97591 -1.66797,1.4707 -0.49479,0.49479 -0.86241,1.02366 -1.10547,1.58789 h 8.51562 v 3.00781 h -12.83984 v -2.53906 c 0.47743,-1.05035 1.15452,-2.074 2.03125,-3.07226 0.88542,-0.99827 1.99718,-2.03993 3.33399,-3.125 1.28472,-1.04167 2.18316,-1.90105 2.69531,-2.57813 0.52083,-0.67708 0.78125,-1.34114 0.78125,-1.99219 0,-1.59722 -0.8023,-2.39648 -2.4082,-2.39648 -0.78125,0 -1.38021,0.21332 -1.79688,0.63867 -0.40799,0.41667 -0.67339,1.04666 -0.79492,1.88867 l -3.68555,-0.20898 c 0.20833,-1.70139 0.84332,-2.99848 1.90235,-3.89258 1.0677,-0.8941 2.51605,-1.3418 4.34765,-1.3418 z m -91.90039,0.27344 h 4.53125 l 6.66602,18.3457 h -3.80079 l -1.6289,-4.6875 h -6.99219 l -1.62695,4.6875 h -3.8418 z m 34.42774,0 H 279.75 c 3.09028,0 5.48112,0.78125 7.17383,2.34375 1.69271,1.55382 2.53906,3.78537 2.53906,6.69336 0,1.89236 -0.37261,3.54601 -1.11914,4.96094 -0.73785,1.40625 -1.7895,2.48199 -3.15234,3.22851 -1.35417,0.74653 -2.90669,1.11914 -4.66016,1.11914 h -7.42187 z m 17.66796,0 h 4.01172 l 3.77539,11.7832 c 0.23438,0.76389 0.55491,1.91971 0.96289,3.46485 l 0.27344,-1.1211 0.66406,-2.34375 3.76368,-11.7832 h 3.9707 l -6.74414,18.3457 h -3.89258 z m -29.83007,2.74805 c -1.71875,0 -3.04688,0.55989 -3.98438,1.67969 -0.9375,1.11111 -1.40625,2.66362 -1.40625,4.66015 0,2.01389 0.47678,3.60243 1.43164,4.76563 0.96354,1.15451 2.27561,1.73242 3.9336,1.73242 1.71874,0 3.04188,-0.56489 3.9707,-1.69336 0.9375,-1.12847 1.40625,-2.73004 1.40625,-4.80469 0,-1.97916 -0.46875,-3.52864 -1.40625,-4.64844 -0.9375,-1.12847 -2.25261,-1.6914 -3.94531,-1.6914 z m -20,0.0781 -0.0781,0.28516 c -0.0868,0.3125 -0.19097,0.66905 -0.3125,1.06836 -0.12153,0.3993 -0.86871,2.59483 -2.24023,6.58789 h 5.27343 l -1.80859,-5.27344 -0.56055,-1.76953 z m 36.00195,0.14258 v 12.4082 h 3.25586 c 1.6493,0 2.95942,-0.56792 3.93164,-1.70507 0.97222,-1.13716 1.45898,-2.68164 1.45898,-4.63477 0,-1.97049 -0.5128,-3.47287 -1.53711,-4.50586 -1.0243,-1.04167 -2.48567,-1.5625 -4.38671,-1.5625 z m 31.5625,1.28906 h 3.86719 l 2.46093,7.87696 c 0.13021,0.43402 0.43967,1.51975 0.92578,3.25586 0.0868,-0.35591 0.26411,-0.98091 0.53321,-1.875 0.2691,-0.8941 1.26671,-3.98004 2.99414,-9.25782 h 3.82812 l -5.19531,14.08789 h -4.375 z"
       transform="scale(0.26458333)"
       id="rect2295"
       inkscape:connector-curvature="0" />
    <path
       style="fill:#cccccc;fill-opacity:1;stroke:#cccccc;stroke-width:0.96499997;stroke-linecap:round;stroke-linejoin:miter;stroke-miterlimit:4;stroke-dasharray:5.79, 1.93;stroke-dashoffset:0;stroke-opacity:1"
       d="m 106.90781,150.66993 h 40.62497"
       id="path2306"
       inkscape:connector-curvature="0" />
    <path
       style="fill:#cccccc;fill-opacity:1;stroke:#cccccc;stroke-width:0.96499997;stroke-linecap:round;stroke-linejoin:miter;stroke-miterlimit:4;stroke-dasharray:5.79000006, 1.93000002;stroke-dashoffset:0;stroke-opacity:1"
       d="m 106.90781,134.09922 h 40.62497"
       id="path2306-8"
       inkscape:connector-curvature="0" />
    <path
       style="fill:#cccccc;fill-opacity:1;stroke:#cccccc;stroke-width:0.96499997;stroke-linecap:round;stroke-linejoin:miter;stroke-miterlimit:4;stroke-dasharray:5.79000012, 1.93000004;stroke-dashoffset:0;stroke-opacity:1"
       d="m 106.90781,119.53303 h 40.62497"
       id="path2306-8-5"
       inkscape:connector-curvature="0" />
    <path
       style="fill:#cccccc;fill-opacity:1;stroke:#cccccc;stroke-width:0.96499997;stroke-linecap:round;stroke-linejoin:miter;stroke-miterlimit:4;stroke-dasharray:5.79000018, 1.93000006;stroke-dashoffset:0;stroke-opacity:1"
       d="m 106.90781,103.22959 h 40.62497"
       id="path2306-8-5-0"
       inkscape:connector-curvature="0" />
    <text
       xml:space="preserve"
       style="font-style:normal;font-weight:normal;font-size:10.58333302px;line-height:1.25;font-family:sans-serif;letter-spacing:0px;word-spacing:0px;fill:#cccccc;fill-opacity:1;stroke:none;stroke-width:0.26458332"
       x="149.48956"
       y="151.85715"
       id="text2357"><tspan
         sodipodi:role="line"
         x="149.48956"
         y="151.85715"
         style="font-style:normal;font-variant:normal;font-weight:bold;font-stretch:normal;font-size:4.93888903px;font-family:sans-serif;-inkscape-font-specification:'sans-serif Bold';fill:#cccccc;fill-opacity:1;stroke-width:0.26458332"
         id="tspan2359">PHY</tspan></text>
    <text
       xml:space="preserve"
       style="font-style:normal;font-weight:normal;font-size:10.58333302px;line-height:1.25;font-family:sans-serif;letter-spacing:0px;word-spacing:0px;fill:#cccccc;fill-opacity:1;stroke:none;stroke-width:0.26458332"
       x="149.42265"
       y="135.42213"
       id="text2365"><tspan
         sodipodi:role="line"
         id="tspan2363"
         x="149.42265"
         y="135.42213"
         style="font-style:normal;font-variant:normal;font-weight:bold;font-stretch:normal;font-size:4.93888903px;font-family:sans-serif;-inkscape-font-specification:'sans-serif Bold';fill:#cccccc;fill-opacity:1;stroke-width:0.26458332">Network</tspan></text>
    <text
       xml:space="preserve"
       style="font-style:normal;font-weight:normal;font-size:4.93888903px;line-height:1.25;font-family:sans-serif;letter-spacing:0px;word-spacing:0px;fill:#cccccc;fill-opacity:1;stroke:none;stroke-width:0.26458332"
       x="148.92262"
       y="120.48512"
       id="text2369"><tspan
         sodipodi:role="line"
         id="tspan2367"
         x="148.92262"
         y="120.48512"
         style="font-style:normal;font-variant:normal;font-weight:bold;font-stretch:normal;font-size:4.93888903px;font-family:sans-serif;-inkscape-font-specification:'sans-serif Bold';fill:#cccccc;fill-opacity:1;stroke-width:0.26458332">Transport</tspan></text>
    <text
       xml:space="preserve"
       style="font-style:normal;font-variant:normal;font-weight:bold;font-stretch:normal;font-size:4.93888903px;line-height:1.25;font-family:sans-serif;-inkscape-font-specification:'sans-serif Bold';letter-spacing:0px;word-spacing:0px;fill:#cccccc;fill-opacity:1;stroke:none;stroke-width:0.26458332"
       x="149.3006"
       y="104.04315"
       id="text2373"><tspan
         sodipodi:role="line"
         id="tspan2371"
         x="149.3006"
         y="104.04315"
         style="font-style:normal;font-variant:normal;font-weight:bold;font-stretch:normal;font-size:4.93888903px;font-family:sans-serif;-inkscape-font-specification:'sans-serif Bold';fill:#cccccc;fill-opacity:1;stroke-width:0.26458332">Routing Algorithm</tspan></text>
  </g>
</svg>
