<?xml version="1.0" encoding="UTF-8" standalone="no"?>
<!-- Created with Inkscape (http://www.inkscape.org/) -->

<svg
   xmlns:dc="http://purl.org/dc/elements/1.1/"
   xmlns:cc="http://creativecommons.org/ns#"
   xmlns:rdf="http://www.w3.org/1999/02/22-rdf-syntax-ns#"
   xmlns:svg="http://www.w3.org/2000/svg"
   xmlns="http://www.w3.org/2000/svg"
   xmlns:sodipodi="http://sodipodi.sourceforge.net/DTD/sodipodi-0.dtd"
   xmlns:inkscape="http://www.inkscape.org/namespaces/inkscape"
   width="133.64798mm"
   height="69.092186mm"
   viewBox="0 0 133.64798 69.092186"
   version="1.1"
   id="svg8"
   inkscape:version="0.92.3 (2405546, 2018-03-11)"
   sodipodi:docname="chips.svg">
  <defs
     id="defs2" />
  <sodipodi:namedview
     id="base"
     pagecolor="#ffffff"
     bordercolor="#666666"
     borderopacity="1.0"
     inkscape:pageopacity="0.0"
     inkscape:pageshadow="2"
     inkscape:zoom="0.98994949"
     inkscape:cx="-180.57308"
     inkscape:cy="146.47485"
     inkscape:document-units="mm"
     inkscape:current-layer="layer1"
     showgrid="false"
     inkscape:measure-start="0,0"
     inkscape:measure-end="0,0"
     showguides="true"
     inkscape:guide-bbox="true"
     fit-margin-top="0"
     fit-margin-left="0"
     fit-margin-right="0"
     fit-margin-bottom="0"
     inkscape:window-width="1366"
     inkscape:window-height="705"
     inkscape:window-x="0"
     inkscape:window-y="30"
     inkscape:window-maximized="1" />
  <metadata
     id="metadata5">
    <rdf:RDF>
      <cc:Work
         rdf:about="">
        <dc:format>image/svg+xml</dc:format>
        <dc:type
           rdf:resource="http://purl.org/dc/dcmitype/StillImage" />
        <dc:title></dc:title>
      </cc:Work>
    </rdf:RDF>
  </metadata>
  <g
     inkscape:label="Layer 1"
     inkscape:groupmode="layer"
     id="layer1"
     transform="translate(-28.073446,-164.72182)">
    <path
       style="fill:#cccccc;fill-opacity:1;stroke-width:0.26458332"
       d="m 121.24028,164.72182 v 7.67291 7.67292 h -0.66146 c -0.57955,0 -0.66146,0.11466 -0.66146,0.92604 0,0.81139 0.0819,0.92604 0.66146,0.92604 0.41158,0 0.66146,0.14994 0.66146,0.39688 0,0.24944 -0.25171,0.39687 -0.67748,0.39687 -0.62101,0 -0.67061,0.0826 -0.59531,0.99219 0.066,0.79699 0.19929,1.00904 0.67748,1.07694 0.8185,0.11624 0.75286,0.57671 -0.0822,0.57671 -0.62101,0 -0.67061,0.0826 -0.59531,0.99218 0.066,0.79698 0.19929,1.00904 0.67748,1.07694 0.76933,0.10926 0.76933,0.51499 0,0.62425 -0.47819,0.0679 -0.61148,0.27996 -0.67748,1.07694 -0.0753,0.90959 -0.0257,0.99219 0.59531,0.99219 0.38714,0 0.67748,0.1509 0.67748,0.35191 0,0.1946 -0.26595,0.34233 -0.59531,0.33073 -0.50152,-0.0177 -0.60828,0.13513 -0.67748,0.971 -0.0753,0.90958 -0.0257,0.99219 0.59531,0.99219 0.42577,0 0.67748,0.14744 0.67748,0.39687 0,0.24695 -0.24988,0.39688 -0.66146,0.39688 -0.57955,0 -0.66146,0.11466 -0.66146,0.92604 0,0.81139 0.0819,0.92604 0.66146,0.92604 0.41158,0 0.66146,0.14994 0.66146,0.39688 0,0.24944 -0.25171,0.39687 -0.67748,0.39687 -0.62101,0 -0.67061,0.0826 -0.59531,0.99219 0.066,0.79699 0.19929,1.00904 0.67748,1.07694 0.8185,0.11624 0.75286,0.57671 -0.0822,0.57671 -0.62101,0 -0.67061,0.0826 -0.59531,0.99218 0.066,0.79698 0.19929,1.00904 0.67748,1.07694 0.76933,0.10927 0.76933,0.51498 0,0.62425 -0.47819,0.0679 -0.61148,0.27996 -0.67748,1.07694 -0.0753,0.90959 -0.0257,0.99219 0.59531,0.99219 0.38714,0 0.67748,0.1509 0.67748,0.35191 0,0.1946 -0.26595,0.34233 -0.59531,0.33073 -0.50152,-0.0177 -0.60828,0.13513 -0.67748,0.971 -0.0753,0.90958 -0.0257,0.99219 0.59531,0.99219 0.42577,0 0.67748,0.14744 0.67748,0.39687 0,0.24694 -0.24988,0.39688 -0.66146,0.39688 -0.57955,0 -0.66146,0.11465 -0.66146,0.92604 0,0.81138 0.0819,0.92604 0.66146,0.92604 0.41158,0 0.66146,0.14994 0.66146,0.39688 0,0.24944 -0.25171,0.39687 -0.67748,0.39687 -0.62101,0 -0.67061,0.0826 -0.59531,0.99219 0.066,0.79699 0.19929,1.00904 0.67748,1.07694 0.76933,0.10926 0.76933,0.51499 0,0.62425 -0.48786,0.0693 -0.59532,0.25189 -0.59532,1.01079 0,0.7589 0.10746,0.94149 0.59532,1.01079 0.76933,0.10927 0.76933,0.51498 0,0.62425 -0.47819,0.0679 -0.61148,0.27996 -0.67748,1.07694 -0.0753,0.90959 -0.0257,0.99219 0.59531,0.99219 0.63653,0 0.67748,0.0799 0.67748,1.32291 v 1.32292 h 3.175 c 2.99861,0 3.175,0.0294 3.175,0.52917 0,0.44097 0.17638,0.52916 1.05833,0.52916 0.88194,0 1.05834,-0.0882 1.05834,-0.52916 0,-0.29104 0.11906,-0.52917 0.26458,-0.52917 0.14552,0 0.26458,0.23813 0.26458,0.52917 0,0.44097 0.1764,0.52916 1.05834,0.52916 0.88194,0 1.05833,-0.0882 1.05833,-0.52916 0,-0.29398 0.17638,-0.52917 0.39687,-0.52917 0.22048,0 0.39688,0.23519 0.39688,0.52917 0,0.42837 0.17639,0.52916 0.92604,0.52916 0.74966,0 0.92604,-0.10079 0.92604,-0.52916 0,-0.29398 0.1764,-0.52917 0.39688,-0.52917 0.22049,0 0.39687,0.23519 0.39687,0.52917 0,0.44097 0.1764,0.52916 1.05834,0.52916 0.88194,0 1.05833,-0.0882 1.05833,-0.52916 0,-0.29104 0.11906,-0.52917 0.26458,-0.52917 0.14552,0 0.26459,0.23813 0.26459,0.52917 0,0.44097 0.17639,0.52916 1.05833,0.52916 0.88195,0 1.05833,-0.0882 1.05833,-0.52916 0,-0.29104 0.11907,-0.52917 0.26459,-0.52917 0.14552,0 0.26458,0.23813 0.26458,0.52917 0,0.44097 0.17638,0.52916 1.05833,0.52916 0.88194,0 1.05834,-0.0882 1.05834,-0.52916 0,-0.29104 0.11906,-0.52917 0.26458,-0.52917 0.14552,0 0.26458,0.23813 0.26458,0.52917 0,0.44097 0.1764,0.52916 1.05834,0.52916 0.88194,0 1.05833,-0.0882 1.05833,-0.52916 0,-0.29398 0.17638,-0.52917 0.39687,-0.52917 0.22048,0 0.39688,0.23519 0.39688,0.52917 0,0.42837 0.17639,0.52916 0.92604,0.52916 0.74966,0 0.92604,-0.10079 0.92604,-0.52916 0,-0.29398 0.1764,-0.52917 0.39688,-0.52917 0.22049,0 0.39687,0.23519 0.39687,0.52917 0,0.44347 0.17654,0.52916 1.08934,0.52916 0.95881,0 1.07268,-0.0633 0.95085,-0.52916 -0.0899,-0.34392 -0.008,-0.52917 0.23358,-0.52917 0.20465,0 0.37207,0.23813 0.37207,0.52917 0,0.44097 0.17639,0.52916 1.05833,0.52916 0.88195,0 1.05833,-0.0882 1.05833,-0.52916 0,-0.49977 0.17639,-0.52917 3.175,-0.52917 h 3.175 v -1.32292 c 0,-1.24302 0.041,-1.32291 0.67748,-1.32291 0.62101,0 0.67061,-0.0826 0.59531,-0.99219 -0.066,-0.79698 -0.19929,-1.00904 -0.67747,-1.07694 -0.32742,-0.0465 -0.59532,-0.18684 -0.59532,-0.31212 0,-0.12528 0.2679,-0.26563 0.59532,-0.31213 0.47818,-0.0679 0.61147,-0.27996 0.67747,-1.07694 0.0753,-0.90959 0.0257,-0.99218 -0.59531,-0.99218 -0.83501,0 -0.90065,-0.46047 -0.0822,-0.57671 0.47818,-0.0679 0.61147,-0.27995 0.67747,-1.07694 0.0753,-0.90958 0.0257,-0.99219 -0.59531,-0.99219 -0.42577,0 -0.67748,-0.14743 -0.67748,-0.39687 0,-0.24694 0.24989,-0.39688 0.66146,-0.39688 0.57956,0 0.66146,-0.11466 0.66146,-0.92604 0,-0.81139 -0.0819,-0.92604 -0.66146,-0.92604 -0.41157,0 -0.66146,-0.14994 -0.66146,-0.39688 0,-0.24943 0.25171,-0.39687 0.67748,-0.39687 0.62101,0 0.67061,-0.0826 0.59531,-0.99219 -0.0692,-0.83587 -0.17595,-0.9887 -0.67747,-0.971 -0.32937,0.0116 -0.59532,-0.13613 -0.59532,-0.33073 0,-0.20101 0.29034,-0.35191 0.67748,-0.35191 0.62101,0 0.67061,-0.0826 0.59531,-0.99219 -0.066,-0.79698 -0.19929,-1.00904 -0.67747,-1.07694 -0.32742,-0.0465 -0.59532,-0.18684 -0.59532,-0.31212 0,-0.12528 0.2679,-0.26563 0.59532,-0.31213 0.47818,-0.0679 0.61147,-0.27996 0.67747,-1.07694 0.0753,-0.90959 0.0257,-0.99218 -0.59531,-0.99218 -0.83501,0 -0.90065,-0.46047 -0.0822,-0.57671 0.47818,-0.0679 0.61147,-0.27995 0.67747,-1.07694 0.0753,-0.90958 0.0257,-0.99219 -0.59531,-0.99219 -0.42577,0 -0.67748,-0.14743 -0.67748,-0.39687 0,-0.24694 0.24989,-0.39688 0.66146,-0.39688 0.57956,0 0.66146,-0.11465 0.66146,-0.92604 0,-0.81138 -0.0819,-0.92604 -0.66146,-0.92604 -0.41157,0 -0.66146,-0.14993 -0.66146,-0.39688 0,-0.24943 0.25171,-0.39687 0.67748,-0.39687 0.62101,0 0.67061,-0.0826 0.59531,-0.99219 -0.0692,-0.83587 -0.17595,-0.9887 -0.67747,-0.971 -0.32937,0.0116 -0.59532,-0.13613 -0.59532,-0.33073 0,-0.20101 0.29034,-0.35191 0.67748,-0.35191 0.62101,0 0.67061,-0.0826 0.59531,-0.99219 -0.066,-0.79698 -0.19929,-1.00904 -0.67747,-1.07694 -0.32742,-0.0465 -0.59532,-0.18684 -0.59532,-0.31212 0,-0.12528 0.2679,-0.26563 0.59532,-0.31213 0.47818,-0.0679 0.61147,-0.27996 0.67747,-1.07694 0.0753,-0.90959 0.0257,-0.99218 -0.59531,-0.99218 -0.83501,0 -0.90065,-0.46047 -0.0822,-0.57671 0.47818,-0.0679 0.61147,-0.27995 0.67747,-1.07694 0.0753,-0.90958 0.0257,-0.99219 -0.59531,-0.99219 -0.42577,0 -0.67748,-0.14743 -0.67748,-0.39687 0,-0.24694 0.24989,-0.39688 0.66146,-0.39688 0.57956,0 0.66146,-0.11465 0.66146,-0.92604 0,-0.81138 -0.0819,-0.92604 -0.66146,-0.92604 h -0.66146 v -7.67292 -7.67291 h -19.57916 z m 2.91042,15.08125 h 16.66875 16.66875 v 18.25625 18.25625 H 140.81945 124.1507 v -18.25625 z m 0.79375,0.79375 v 17.4625 17.4625 h 15.7427 15.74271 v -17.4625 -17.4625 h -15.74271 z m 16.79122,8.20208 c 2.38434,0 4.9964,1.75149 6.19962,4.15685 0.55842,1.11635 0.7671,3.25148 0.31781,3.25148 -0.13163,0 -0.59293,-0.62507 -1.02474,-1.38906 -1.00177,-1.7724 -3.05331,-3.69025 -4.93613,-4.61367 -1.69398,-0.8308 -1.92166,-1.4056 -0.55656,-1.4056 z m -2.86959,1.10226 c 0.16132,-0.005 0.32776,0.002 0.49712,0.0212 2.84626,0.32082 6.27132,2.91891 7.58817,5.75573 0.93723,2.01904 1.06287,2.90423 0.53485,3.77444 -0.30853,0.5085 -0.65734,0.72347 -1.17202,0.72347 -0.62719,0 -0.73225,-0.10742 -0.73225,-0.74672 0,-1.40554 -0.83823,-3.22822 -2.13941,-4.65192 -1.43095,-1.56568 -3.05321,-2.40213 -5.21363,-2.68872 -1.20001,-0.15917 -1.37821,-0.26006 -1.37821,-0.7798 0,-0.78779 0.88613,-1.37542 2.01538,-1.40766 z m -2.88148,0.3669 c 0.28758,-0.0353 0.25579,0.47962 -0.30386,1.30431 -1.50865,2.22313 -1.64149,5.01736 -0.35915,7.56905 0.62564,1.24493 0.87937,1.5553 0.95446,1.16685 0.15261,-0.78989 0.56878,-1.19062 1.2361,-1.19062 1.30259,0 1.60127,1.70183 0.40308,2.29702 -0.65031,0.32303 -0.64518,0.33019 0.65629,0.90588 2.61031,1.15468 5.32172,0.88897 7.44089,-0.72863 0.65028,-0.49637 1.29541,-0.83243 1.43402,-0.74673 0.44713,0.27634 0.27424,0.54818 -0.8723,1.37046 -4.23849,3.03976 -9.78916,1.71661 -12.0866,-2.88096 -0.66414,-1.32908 -0.81183,-1.94746 -0.81183,-3.40083 0,-2.01592 0.48947,-3.64338 1.49086,-4.95628 0.3579,-0.46923 0.64549,-0.68834 0.81804,-0.70952 z m 1.86345,2.4784 c 0.83191,0.0222 1.7955,0.27916 2.85047,0.77825 1.69611,0.8024 2.70629,1.80251 3.6127,3.57756 0.32957,0.64539 0.60785,1.80578 0.68265,2.84789 0.11505,1.60257 0.0752,1.78622 -0.44959,2.06706 -0.31671,0.16952 -0.89737,0.27122 -1.29036,0.22582 -0.68785,-0.0794 -0.71117,-0.13423 -0.62477,-1.46244 0.1189,-1.8272 -0.28537,-2.94718 -1.48311,-4.11086 -1.09125,-1.06021 -2.07639,-1.52084 -3.25406,-1.52084 -1.10937,0 -0.96055,0.43122 0.21549,0.62425 2.78327,0.45682 4.49596,3.03123 3.78168,5.68389 -0.25613,0.95117 -0.39382,1.09892 -1.01389,1.09192 -1.09276,-0.0128 -1.75299,-0.61468 -1.3994,-1.27537 0.47418,-0.88604 0.32571,-1.62663 -0.48834,-2.44068 -0.5111,-0.5111 -1.04225,-0.77359 -1.56683,-0.77359 -1.65275,0 -3.03087,-1.97 -2.44895,-3.50057 0.46921,-1.23411 1.48979,-1.84922 2.87631,-1.81229 z m 12.56151,14.67559 c 0.23283,0 0.4163,0.0671 0.55035,0.20464 0.11289,0.10936 0.17674,0.26464 0.17674,0.40928 0,0.19403 -0.0916,0.3244 -0.32091,0.46199 0.26811,0.13052 0.39842,0.307 0.39842,0.53278 0,0.20461 -0.0987,0.40217 -0.26097,0.52917 -0.15522,0.11641 -0.34213,0.16588 -0.64905,0.16588 -0.43392,0 -0.72347,-0.12032 -0.72347,-0.30024 0,-0.0988 0.078,-0.17622 0.17673,-0.17622 0.0423,0 0.0562,0.007 0.11266,0.0424 0.0917,0.06 0.19745,0.0811 0.42323,0.0811 0.24341,0 0.37397,-0.0352 0.46922,-0.11989 0.06,-0.0564 0.0987,-0.14469 0.0987,-0.22583 0,-0.13053 -0.10239,-0.25388 -0.2682,-0.32091 -0.0741,-0.0317 -0.11961,-0.0389 -0.2713,-0.046 -0.11642,-0.007 -0.18345,-0.067 -0.18345,-0.16226 0,-0.10231 0.0776,-0.17622 0.18345,-0.17622 h 0.14108 c 0.17286,0 0.32091,-0.13089 0.32091,-0.27905 0,-0.16581 -0.15191,-0.26821 -0.39533,-0.26821 -0.19403,0 -0.29277,0.0388 -0.40566,0.16227 -0.0317,0.0318 -0.0772,0.0532 -0.12661,0.0532 -0.0952,0 -0.17311,-0.081 -0.17311,-0.17621 0,-0.20461 0.3491,-0.39171 0.72657,-0.39171 z m 2.07687,0 c 0.43039,0 0.75138,0.29262 0.75138,0.6842 0,0.2293 -0.0848,0.36359 -0.43408,0.68109 -0.0952,0.0882 -0.29986,0.26467 -0.6103,0.53279 h 0.709 c 0.0106,-0.127 0.0674,-0.19069 0.17673,-0.19069 0.06,0 0.11966,0.0318 0.15141,0.0847 0.0176,0.0317 0.0248,0.0631 0.0248,0.14779 v 0.31058 h -1.60145 v -0.37052 c 0.59266,-0.49036 0.65929,-0.54679 0.81804,-0.69143 0.35277,-0.32103 0.41289,-0.39837 0.41289,-0.51832 0,-0.17991 -0.17635,-0.31781 -0.40566,-0.31781 -0.14111,0 -0.26449,0.053 -0.3421,0.1447 -0.0353,0.0423 -0.0387,0.0494 -0.0775,0.16226 -0.0176,0.06 -0.0851,0.10232 -0.15917,0.10232 -0.0952,0 -0.17621,-0.0773 -0.17621,-0.16898 0,-0.11289 0.0919,-0.28596 0.21187,-0.39533 0.14111,-0.127 0.34222,-0.1974 0.55035,-0.1974 z m -21.12119,0.14469 c 0.17992,0 0.3349,0.0387 0.45837,0.11628 0.0353,-0.0882 0.0669,-0.11628 0.13746,-0.11628 0.06,1e-5 0.12009,0.0317 0.14831,0.0811 0.0212,0.0317 0.0248,0.0597 0.0248,0.15141 v 0.31058 c 0,0.0988 -0.007,0.12698 -0.0315,0.16226 -0.0353,0.0459 -0.0887,0.0739 -0.1416,0.0739 -0.0494,0 -0.0984,-0.0209 -0.1266,-0.0491 -0.0247,-0.0282 -0.0249,-0.0282 -0.0496,-0.14107 -0.0318,-0.14111 -0.2009,-0.23668 -0.41962,-0.23668 -0.22225,0 -0.39894,0.1165 -0.39894,0.2682 0,0.0741 0.0531,0.1555 0.13074,0.1943 0.0706,0.0353 0.0884,0.0421 0.35295,0.0915 0.30692,0.0565 0.441,0.10611 0.55036,0.1943 0.14111,0.11289 0.20773,0.25736 0.20773,0.4408 0,0.36689 -0.32439,0.61392 -0.8077,0.61392 -0.1905,0 -0.37749,-0.0457 -0.55035,-0.13746 -0.06,0.0705 -0.0846,0.0842 -0.14108,0.0842 -0.12347,0 -0.17983,-0.0738 -0.17983,-0.23254 v -0.23306 c 0,-0.0882 0.007,-0.12699 0.0315,-0.16227 0.0353,-0.0459 0.0882,-0.0703 0.1447,-0.0703 0.0494,0 0.0954,0.0173 0.12712,0.0491 0.0247,0.0247 0.0245,0.0246 0.0527,0.11989 0.0353,0.127 0.25757,0.22944 0.49041,0.22944 0.26105,0 0.4656,-0.11651 0.4656,-0.2682 0,-0.0741 -0.049,-0.14474 -0.1266,-0.18707 -0.0741,-0.0388 -0.13063,-0.0528 -0.37052,-0.0951 -0.22931,-0.0388 -0.34239,-0.074 -0.45527,-0.13746 -0.17992,-0.10231 -0.28939,-0.28933 -0.28939,-0.49041 0,-0.35631 0.3284,-0.62426 0.76584,-0.62426 z m 10.57972,0 c 0.23636,1e-5 0.4657,0.0949 0.65267,0.27131 0.22225,0.21167 0.33176,0.4835 0.33176,0.82217 0,0.57855 -0.44821,1.06195 -0.98443,1.06195 -0.54328,0 -0.98392,-0.48333 -0.98392,-1.07952 0,-0.59267 0.44064,-1.07591 0.98392,-1.07591 z m 2.11563,0 c 0.23636,1e-5 0.4657,0.0949 0.65268,0.27131 0.22225,0.21167 0.33124,0.4835 0.33124,0.82217 0,0.57855 -0.44769,1.06195 -0.98392,1.06195 -0.54327,0 -0.98443,-0.48333 -0.98443,-1.07952 0,-0.59267 0.44116,-1.07591 0.98443,-1.07591 z m 1.24024,0.0455 c 0.007,0 0.0104,9e-5 0.014,0.004 h 0.38447 l 0.48679,1.048 0.47646,-1.048 h 0.38809 c 0.0952,0 0.12699,0.007 0.16226,0.032 0.0423,0.0353 0.0708,0.0882 0.0708,0.14469 0,0.10231 -0.067,0.16564 -0.18345,0.17622 v 1.35134 c 0.13758,0 0.21497,0.0633 0.21497,0.17621 0,0.06 -0.0318,0.11614 -0.0847,0.15142 -0.0247,0.0141 -0.0778,0.0248 -0.14831,0.0248 h -0.45837 c -0.0811,0 -0.13042,-0.0104 -0.15864,-0.0351 -0.0459,-0.0317 -0.0744,-0.0882 -0.0744,-0.14108 0,-0.06 0.0318,-0.12018 0.0847,-0.15192 0.0318,-0.0212 0.0566,-0.0243 0.14831,-0.0243 h 0.12351 v -1.01958 l -0.39171,0.88522 h -0.32091 l -0.41651,-0.88522 v 1.01958 h 0.12351 c 0.0953,0 0.12345,0.007 0.16226,0.0315 0.0459,0.0353 0.0708,0.0882 0.0708,0.14469 0,0.06 -0.0318,0.11614 -0.0848,0.15142 -0.0247,0.0141 -0.0778,0.0248 -0.14831,0.0248 h -0.45476 c -0.0847,0 -0.13051,-0.0104 -0.16226,-0.0351 -0.0459,-0.0317 -0.0744,-0.0846 -0.0744,-0.14108 0,-0.11288 0.0779,-0.17621 0.2155,-0.17621 v -1.35134 c -0.11642,-0.0106 -0.18345,-0.074 -0.18345,-0.17984 0,-0.0564 0.0318,-0.11665 0.0847,-0.15192 0.0176,-0.0106 0.0915,-0.0248 0.13385,-0.0248 z m -16.82688,0.004 h 1.58388 v 0.52916 c 0,0.0988 -0.007,0.12699 -0.032,0.16227 -0.0353,0.0459 -0.0882,0.0744 -0.14469,0.0744 -0.06,0 -0.11614,-0.0318 -0.15142,-0.0847 -0.0176,-0.0317 -0.0248,-0.0673 -0.0248,-0.15193 v -0.17621 h -0.82527 v 0.49713 h 0.29972 v -0.0243 c 0,-0.0952 0.007,-0.12699 0.0315,-0.16227 0.0353,-0.0459 0.0882,-0.0744 0.14108,-0.0744 0.0952,0 0.159,0.0635 0.17312,0.16227 0.004,0.0317 0.004,0.0427 0.004,0.0744 v 0.39842 c 0,0.0917 -0.007,0.1269 -0.032,0.15865 -0.0353,0.0459 -0.0882,0.0744 -0.14107,0.0744 -0.06,0 -0.11967,-0.0318 -0.15142,-0.0848 -0.0176,-0.0317 -0.0248,-0.0636 -0.0248,-0.14831 v -0.0248 h -0.29972 v 0.50488 h 0.90278 v -0.18345 c 0,-0.0988 0.007,-0.12699 0.032,-0.16227 0.0353,-0.0494 0.0883,-0.0744 0.1447,-0.0744 0.06,0 0.11613,0.0318 0.15141,0.0847 0.0176,0.0318 0.0248,0.0637 0.0248,0.15193 v 0.53588 h -1.66139 c -0.0811,0 -0.13094,-0.0104 -0.15917,-0.0351 -0.0459,-0.0317 -0.0739,-0.0846 -0.0739,-0.14108 0,-0.06 0.0318,-0.11665 0.0848,-0.15192 0.0318,-0.0212 0.0636,-0.0243 0.14831,-0.0243 h 0.0527 v -1.35134 h -0.0527 c -0.0882,0 -0.12742,-0.007 -0.15917,-0.032 -0.0459,-0.0353 -0.0739,-0.0877 -0.0739,-0.14418 0,-0.06 0.0318,-0.12018 0.0848,-0.15193 0.0318,-0.0212 0.0566,-0.0248 0.14831,-0.0248 z m 4.23023,0 h 0.82217 c 0.44803,0 0.76533,0.27504 0.76533,0.66662 0,0.16228 -0.0633,0.32818 -0.17622,0.45166 -0.15522,0.17286 -0.33182,0.23306 -0.65991,0.23306 h -0.34571 v 0.35295 h 0.34933 c 0.0952,0 0.12337,0.007 0.15865,0.0315 0.0459,0.0353 0.0744,0.0882 0.0744,0.14469 0,0.06 -0.0318,0.11967 -0.0847,0.15142 -0.0247,0.0141 -0.0778,0.0248 -0.14831,0.0248 h -0.75499 c -0.0811,0 -0.13043,-0.0104 -0.15865,-0.0351 -0.0459,-0.0317 -0.0739,-0.0882 -0.0739,-0.14108 0,-0.06 0.0318,-0.12018 0.0847,-0.15192 0.0318,-0.0212 0.0631,-0.0243 0.1478,-0.0243 h 0.0532 v -1.35134 h -0.0532 c -0.0882,0 -0.1269,-0.007 -0.15865,-0.032 -0.0459,-0.0353 -0.0739,-0.0913 -0.0739,-0.14418 0,-0.06 0.0318,-0.12018 0.0847,-0.15193 0.0318,-0.0212 0.0561,-0.0248 0.1478,-0.0248 z m 4.14962,0 h 0.46198 c 0.0988,0 0.12699,0.007 0.16227,0.032 0.0459,0.0353 0.0744,0.0882 0.0744,0.14469 0,0.06 -0.0318,0.11966 -0.0847,0.15141 -0.0318,0.0176 -0.0673,0.0248 -0.15193,0.0248 h -0.16898 l 0.12661,0.95963 0.2682,-0.79737 h 0.3669 l 0.2682,0.79737 0.12351,-0.95963 h -0.18707 c -0.0882,0 -0.1269,-0.007 -0.15864,-0.032 -0.0459,-0.0353 -0.0744,-0.0877 -0.0744,-0.14418 0,-0.06 0.0318,-0.12018 0.0848,-0.15193 0.0317,-0.0212 0.0566,-0.0248 0.14831,-0.0248 h 0.46199 c 0.0952,0 0.12699,0.007 0.16226,0.032 0.0423,0.0353 0.0708,0.0882 0.0708,0.14469 0,0.0952 -0.06,0.15858 -0.16588,0.17622 l -0.21188,1.70377 h -0.38808 l -0.32764,-0.9772 -0.32142,0.9772 h -0.39119 l -0.21922,-1.70412 c -0.10583,-0.0141 -0.16226,-0.0707 -0.16226,-0.1695 0,-0.067 0.0318,-0.12337 0.0847,-0.15865 0.0318,-0.0212 0.0566,-0.0248 0.14832,-0.0248 z m 2.19625,0 h 0.78703 c 0.45861,0 0.77566,0.25745 0.77566,0.62787 0,0.22225 -0.12333,0.39167 -0.38085,0.53278 0.1658,0.14464 0.29624,0.30727 0.44441,0.54364 h 0.046 c 0.0882,0 0.12699,0.007 0.16227,0.0315 0.0423,0.0317 0.0708,0.0882 0.0708,0.14469 0,0.06 -0.0318,0.11967 -0.0847,0.15142 -0.0247,0.0141 -0.0778,0.0248 -0.14832,0.0248 h -0.27853 c -0.17639,-0.34219 -0.50089,-0.72998 -0.64906,-0.7829 h -0.339 v 0.43047 h 0.12351 c 0.0953,0 0.12699,0.007 0.16227,0.0315 0.0423,0.0353 0.0708,0.0882 0.0708,0.14469 0,0.06 -0.0318,0.11967 -0.0848,0.15142 -0.0247,0.0141 -0.0778,0.0248 -0.14831,0.0248 h -0.52916 c -0.0811,0 -0.13043,-0.0104 -0.15865,-0.0351 -0.0459,-0.0317 -0.0739,-0.0882 -0.0739,-0.14108 0,-0.06 0.0318,-0.12018 0.0848,-0.15192 0.0317,-0.0212 0.0631,-0.0243 0.1478,-0.0243 h 0.0532 v -1.35134 h -0.0532 c -0.0882,0 -0.1269,-0.007 -0.15865,-0.032 -0.0459,-0.0353 -0.0739,-0.0877 -0.0739,-0.14418 0,-0.06 0.0318,-0.12018 0.0848,-0.15193 0.0317,-0.0212 0.0561,-0.0248 0.1478,-0.0248 z m 2.89491,0.30334 c -0.34572,0 -0.63149,0.32836 -0.63149,0.72347 0,0.39864 0.28577,0.72657 0.63149,0.72657 0.34219,0 0.63148,-0.32818 0.63148,-0.71624 0,-0.40569 -0.28223,-0.7338 -0.63148,-0.7338 z m 2.11563,0 c -0.34572,0 -0.63148,0.32836 -0.63148,0.72347 0,0.39864 0.28576,0.72657 0.63148,0.72657 0.3422,0 0.63149,-0.32818 0.63149,-0.71624 0,-0.40569 -0.28224,-0.7338 -0.63149,-0.7338 z m -10.95075,0.0496 v 0.64544 h 0.41651 c 0.24342,0 0.39171,-0.12336 0.39171,-0.32091 0,-0.20109 -0.14829,-0.32453 -0.39171,-0.32453 z m 6.34586,0 v 0.56792 h 0.26821 c 0.29633,0 0.51521,-0.12695 0.51521,-0.30334 0,-0.15169 -0.16231,-0.26458 -0.38809,-0.26458 z m -4.53357,0.54312 h 1.35444 c 0.0917,0 0.12699,0.007 0.16227,0.032 0.0459,0.0353 0.0708,0.0883 0.0708,0.14469 0,0.06 -0.0318,0.11966 -0.0847,0.15141 -0.0282,0.0176 -0.0707,0.0248 -0.14831,0.0248 h -1.35444 c -0.0882,0 -0.12741,-0.007 -0.15916,-0.032 -0.0459,-0.0353 -0.0739,-0.0877 -0.0739,-0.14418 0,-0.06 0.0318,-0.11665 0.0848,-0.15193 0.0317,-0.0212 0.0601,-0.0248 0.14831,-0.0248 z m 12.69173,0 h 1.35444 c 0.0917,0 0.12699,0.007 0.16227,0.032 0.0459,0.0353 0.0708,0.0883 0.0708,0.14469 0,0.06 -0.0318,0.11966 -0.0847,0.15141 -0.0282,0.0176 -0.0707,0.0248 -0.14832,0.0248 h -1.35444 c -0.0882,0 -0.12741,-0.007 -0.15916,-0.032 -0.0459,-0.0353 -0.0739,-0.0877 -0.0739,-0.14418 0,-0.06 0.0318,-0.11665 0.0848,-0.15193 0.0317,-0.0212 0.0601,-0.0248 0.14831,-0.0248 z m 7.74837,1.68827 c 0.004,0.01 0.009,0.0197 0.009,0.03 0,0.008 -0.007,0.0151 -0.009,0.0227 z m -27.19059,1.079 a 1.4410343,1.4410343 0 0 1 1.44074,1.44074 1.4410343,1.4410343 0 0 1 -1.44074,1.44125 1.4410343,1.4410343 0 0 1 -1.44126,-1.44125 1.4410343,1.4410343 0 0 1 1.44126,-1.44074 z"
       id="path826"
       inkscape:connector-curvature="0" />
    <path
       style="opacity:0.98000004;fill:#cccccc;fill-opacity:1;stroke-width:0.12203957"
       d="m 59.827112,184.38064 c -0.506519,0 -0.659061,0.41814 -0.659061,1.8046 v 1.26188 l -0.373031,-0.0382 -0.373031,-0.0381 -0.0236,-1.32194 c -0.02054,-1.15172 -0.05413,-1.34421 -0.260526,-1.49498 -0.309421,-0.22603 -0.614795,-0.21946 -0.852847,0.0186 -0.150954,0.15094 -0.191641,0.47574 -0.191641,1.52549 v 1.33386 h -0.427138 -0.427139 v -1.30239 c 0,-1.41693 -0.129779,-1.7486 -0.683374,-1.7486 -0.506519,0 -0.659061,0.41791 -0.659061,1.80437 v 1.26187 l -0.396629,-0.0382 -0.396628,-0.0381 -0.03456,-1.37747 c -0.03337,-1.33076 -0.04475,-1.382 -0.335609,-1.51453 -0.222848,-0.10153 -0.379244,-0.10153 -0.602093,0 -0.290865,0.13253 -0.302215,0.18377 -0.335609,1.51453 l -0.03457,1.37747 -0.488158,0.0677 c -1.126797,0.15628 -1.847801,0.8775 -2.006263,2.00699 l -0.06841,0.48815 -1.377473,0.0343 c -1.330754,0.0334 -1.382004,0.045 -1.514531,0.33585 -0.101535,0.22285 -0.101535,0.37924 0,0.6021 0.132527,0.29087 0.183777,0.30221 1.514531,0.3356 l 1.377473,0.0345 0.03814,0.39663 0.03838,0.39663 h -1.262108 c -0.944686,0 -1.330089,0.0478 -1.533123,0.18997 -0.321179,0.22496 -0.35061,0.61835 -0.06936,0.92912 0.172153,0.19025 0.398415,0.22335 1.533122,0.22335 h 1.331471 l -0.03837,0.39662 -0.03814,0.39663 -1.37795,0.061 c -1.451546,0.0643 -1.605961,0.13022 -1.610113,0.68671 -0.0032,0.43374 0.261542,0.52332 1.652779,0.55967 l 1.335284,0.035 0.03814,0.39663 0.03837,0.39664 h -1.262108 c -0.944686,0 -1.330089,0.0477 -1.533123,0.18997 -0.321179,0.22497 -0.35061,0.61834 -0.06936,0.92911 0.172019,0.19007 0.398278,0.22335 1.525495,0.22335 h 1.323605 v 0.42714 0.42714 h -1.302392 c -1.416924,0 -1.748598,0.12954 -1.748598,0.68313 0,0.50652 0.417911,0.6593 1.804375,0.6593 h 1.262108 l -0.03838,0.39663 -0.03814,0.39663 -1.335284,0.0348 c -1.391237,0.0363 -1.656007,0.12593 -1.652778,0.55967 0.004,0.55649 0.158566,0.62267 1.610112,0.68695 l 1.37795,0.061 0.03814,0.39664 0.03838,0.39662 h -1.310257 c -1.425181,0 -1.756226,0.12876 -1.756226,0.68314 0,0.50652 0.417911,0.6593 1.804375,0.6593 h 1.262108 l -0.03838,0.39662 -0.03814,0.39663 -1.377473,0.0343 c -1.330754,0.0334 -1.382004,0.045 -1.514531,0.33585 -0.101535,0.22284 -0.101535,0.37923 0,0.60209 0.132527,0.29087 0.183777,0.30221 1.514531,0.33561 l 1.377473,0.0345 0.0677,0.48816 c 0.156282,1.12679 0.877494,1.84756 2.006979,2.00602 l 0.488158,0.0687 0.03313,1.34244 c 0.02686,1.08502 0.07231,1.37169 0.236927,1.49498 v -2.4e-4 c 0.112021,0.0839 0.292576,0.15255 0.401158,0.15255 0.50586,0 0.6033,-0.25204 0.637848,-1.64753 l 0.03337,-1.34243 0.396629,-0.0382 0.396628,-0.0381 v 1.26187 c 0,0.94469 0.04776,1.33032 0.189972,1.53336 0.224967,0.32118 0.618345,0.35038 0.929123,0.0692 0.190058,-0.17202 0.223341,-0.39828 0.223341,-1.52549 v -1.32337 h 0.427138 0.427139 v 1.33362 c 0,1.04975 0.04069,1.37455 0.191641,1.52549 0.238051,0.23805 0.543425,0.24486 0.852847,0.0188 0.20639,-0.15077 0.239999,-0.34326 0.260525,-1.49498 l 0.0236,-1.32194 0.373031,-0.0383 0.373031,-0.0381 v 1.26187 c 0,0.94469 0.04776,1.33033 0.189971,1.53337 0.224963,0.32117 0.618344,0.35037 0.929123,0.0691 0.190058,-0.17201 0.223341,-0.39828 0.223341,-1.52549 v -1.32337 h 0.427139 0.427138 v 1.30216 c 0,1.41692 0.129536,1.74883 0.683136,1.74883 0.506514,0 0.659299,-0.41814 0.659299,-1.80461 v -1.26188 l 0.383519,0.0381 0.383757,0.0384 -0.01931,1.15937 c -0.02212,1.32285 0.122356,1.7492 0.612344,1.80653 0.592869,0.0694 0.71436,-0.21832 0.71436,-1.6933 v -1.33362 h 0.427138 0.427139 v 1.30215 c 0,1.41693 0.129541,1.74883 0.683136,1.74883 0.506519,0 0.659299,-0.41814 0.659299,-1.80461 v -1.26187 l 0.396629,0.0381 0.396628,0.0382 0.03457,1.37747 c 0.03338,1.33076 0.04475,1.382 0.335609,1.51453 0.222849,0.10154 0.379243,0.10154 0.602092,0 0.290866,-0.13253 0.302214,-0.18377 0.335609,-1.51453 l 0.03457,-1.37747 0.488158,-0.0684 c 1.129482,-0.15846 1.850698,-0.87947 2.006979,-2.00627 l 0.0677,-0.48815 1.377236,-0.0343 c 1.330754,-0.0334 1.382245,-0.0447 1.514769,-0.33561 0.101539,-0.22285 0.101539,-0.37948 0,-0.60233 -0.132524,-0.29087 -0.184015,-0.30222 -1.514769,-0.33561 l -1.377236,-0.0345 -0.03837,-0.39663 -0.03814,-0.39662 h 1.26187 c 0.944686,0 1.330324,-0.0478 1.533361,-0.18998 0.321179,-0.22496 0.350377,-0.61835 0.06912,-0.92912 -0.172153,-0.19025 -0.398414,-0.22335 -1.533122,-0.22335 h -1.331232 l 0.03814,-0.39662 0.03838,-0.39663 1.377713,-0.061 c 1.411638,-0.0625 1.605645,-0.13686 1.61035,-0.61736 0.0049,-0.49694 -0.254483,-0.59628 -1.645628,-0.63069 l -1.342435,-0.0332 -0.03838,-0.39662 -0.03814,-0.39663 h 1.26187 c 0.944686,0 1.330323,-0.0478 1.533361,-0.18997 0.321178,-0.22497 0.350377,-0.61859 0.06912,-0.92936 -0.172015,-0.19006 -0.398277,-0.22311 -1.525494,-0.22311 h -1.323367 v -0.42713 -0.42714 h 1.302153 c 1.416924,0 1.748837,-0.12979 1.748837,-0.68338 0,-0.50651 -0.418145,-0.65906 -1.804613,-0.65906 h -1.26187 l 0.03814,-0.39663 0.03838,-0.39663 1.342434,-0.0334 c 1.391145,-0.0344 1.650517,-0.13375 1.645628,-0.6307 -0.0047,-0.48049 -0.198712,-0.55483 -1.61035,-0.61734 l -1.377712,-0.061 -0.03838,-0.39663 -0.03814,-0.39663 h 1.310019 c 1.425181,0 1.756464,-0.129 1.756464,-0.68337 0,-0.50652 -0.418145,-0.65906 -1.804613,-0.65906 h -1.26187 l 0.03814,-0.39664 0.03838,-0.39662 1.377236,-0.0345 c 1.330753,-0.0334 1.382245,-0.0447 1.514768,-0.3356 0.101539,-0.22285 0.101539,-0.37924 0,-0.6021 -0.132471,-0.29072 -0.184357,-0.30249 -1.509524,-0.33584 l -1.371992,-0.0343 -0.09534,-0.45956 c -0.244588,-1.17983 -0.903765,-1.88128 -1.901625,-2.02366 l -0.576351,-0.0822 -0.03457,-1.37628 c -0.03337,-1.32937 -0.04477,-1.38058 -0.335609,-1.5131 -0.222849,-0.10153 -0.379244,-0.10153 -0.602093,0 -0.290866,0.13253 -0.302215,0.18377 -0.335608,1.51453 l -0.03457,1.37747 -0.396628,0.0381 -0.396629,0.0382 v -1.26187 c 0,-0.94469 -0.04775,-1.33032 -0.189972,-1.53336 -0.224962,-0.32118 -0.618587,-0.35037 -0.929359,-0.0692 -0.190063,0.17203 -0.223105,0.39828 -0.223105,1.5255 v 1.3236 h -0.427143 -0.427138 v -1.33385 c 0,-1.47499 -0.121491,-1.76266 -0.71436,-1.6933 -0.489988,0.0573 -0.634484,0.48391 -0.612344,1.80676 l 0.01931,1.15937 -0.383757,0.0381 -0.383519,0.0382 v -1.26187 c 0,-0.94469 -0.04776,-1.33033 -0.189971,-1.53337 -0.224967,-0.32117 -0.618583,-0.35037 -0.92936,-0.0691 -0.190059,0.17202 -0.223104,0.39828 -0.223104,1.5255 v 1.32336 h -0.427138 -0.427139 v -1.30215 c 0,-1.41693 -0.12978,-1.74884 -0.683374,-1.74884 z m 6.690487,6.42232 a 1.7434225,1.7434225 0 0 1 1.743355,1.74336 1.7434225,1.7434225 0 0 1 -1.743355,1.74359 1.7434225,1.7434225 0 0 1 -1.743355,-1.74359 1.7434225,1.7434225 0 0 1 1.743355,-1.74336 z"
       id="path948"
       inkscape:connector-curvature="0" />
    <text
       xml:space="preserve"
       style="font-style:normal;font-weight:normal;font-size:8.31836224px;line-height:1.25;font-family:sans-serif;letter-spacing:0px;word-spacing:0px;fill:#cccccc;fill-opacity:1;stroke:none;stroke-width:0.20795904"
       x="47.014805"
       y="232.31995"
       id="text957"><tspan
         sodipodi:role="line"
         id="tspan955"
         x="47.014805"
         y="232.31995"
         style="fill:#cccccc;fill-opacity:1;stroke-width:0.20795904">CC1312</tspan></text>
    <text
       xml:space="preserve"
       style="font-style:normal;font-weight:normal;font-size:5.41948414px;line-height:1.25;font-family:sans-serif;letter-spacing:0px;word-spacing:0px;fill:#cccccc;fill-opacity:1;stroke:none;stroke-width:0.13548709"
       x="134.86966"
       y="226.7081"
       id="text961"><tspan
         sodipodi:role="line"
         id="tspan959"
         x="134.86966"
         y="226.7081"
         style="fill:#cccccc;fill-opacity:1;stroke-width:0.13548709">Wi-Fi</tspan></text>
    <path
       style="fill:none;stroke:#cccccc;stroke-width:0.96499997;stroke-linecap:round;stroke-linejoin:miter;stroke-miterlimit:4;stroke-dasharray:5.78999981, 1.92999994;stroke-dashoffset:0;stroke-opacity:1"
       d="m 80.191222,215.77417 c 10.822303,5.73738 21.368448,6.22771 31.561008,0"
       id="path1535"
       inkscape:connector-curvature="0"
       sodipodi:nodetypes="cc" />
    <path
       style="fill:none;stroke:#cccccc;stroke-width:0.96499997;stroke-linecap:round;stroke-linejoin:miter;stroke-miterlimit:4;stroke-dasharray:5.78999981, 1.92999994;stroke-dashoffset:0;stroke-opacity:1"
       d="m 80.191223,186.04092 c 10.822303,-5.73738 21.368447,-6.22771 31.561007,0"
       id="path1535-4"
       inkscape:connector-curvature="0"
       sodipodi:nodetypes="cc" />
    <path
       sodipodi:type="star"
       style="opacity:0.98000004;fill:#cccccc;fill-opacity:1;stroke:none;stroke-width:0.96499997;stroke-linecap:round;stroke-miterlimit:4;stroke-dasharray:5.78999974, 1.92999991;stroke-dashoffset:0;stroke-opacity:1"
       id="path1554"
       sodipodi:sides="3"
       sodipodi:cx="113.18466"
       sodipodi:cy="213.75914"
       sodipodi:r1="4.2073736"
       sodipodi:r2="2.1036866"
       sodipodi:arg1="1.3089969"
       sodipodi:arg2="2.3561945"
       inkscape:flatsided="false"
       inkscape:rounded="0"
       inkscape:randomized="0"
       d="m 114.27361,217.82315 -2.57648,-2.57648 -2.57648,-2.57648 3.51954,-0.94306 3.51953,-0.94305 -0.94305,3.51953 z"
       inkscape:transform-center-x="0.28990143"
       inkscape:transform-center-y="0.79074634"
       transform="rotate(7.0790935,107.83368,214.90339)" />
    <path
       sodipodi:type="star"
       style="opacity:0.98000004;fill:#cccccc;fill-opacity:1;stroke:none;stroke-width:0.96499997;stroke-linecap:round;stroke-miterlimit:4;stroke-dasharray:5.78999974, 1.92999991;stroke-dashoffset:0;stroke-opacity:1"
       id="path1554-3"
       sodipodi:sides="3"
       sodipodi:cx="113.18466"
       sodipodi:cy="213.75914"
       sodipodi:r1="4.2073736"
       sodipodi:r2="2.1036866"
       sodipodi:arg1="1.3089969"
       sodipodi:arg2="2.3561945"
       inkscape:flatsided="false"
       inkscape:rounded="0"
       inkscape:randomized="0"
       d="m 114.27361,217.82315 -2.57648,-2.57648 -2.57648,-2.57648 3.51954,-0.94306 3.51953,-0.94305 -0.94305,3.51953 z"
       inkscape:transform-center-x="-0.28988632"
       inkscape:transform-center-y="-0.79076361"
       transform="rotate(-172.92091,95.145021,201.28484)" />
    <text
       xml:space="preserve"
       style="font-style:normal;font-weight:normal;font-size:3.8923502px;line-height:1.25;font-family:sans-serif;letter-spacing:0px;word-spacing:0px;fill:#cccccc;fill-opacity:1;stroke:none;stroke-width:0.09730875"
       x="51.944412"
       y="222.02885"
       id="text1573"><tspan
         sodipodi:role="line"
         id="tspan1571"
         x="51.944412"
         y="222.02885"
         style="fill:#cccccc;fill-opacity:1;stroke-width:0.09730875">Sub-1-GHz</tspan><tspan
         sodipodi:role="line"
         x="51.944412"
         y="226.89429"
         style="fill:#cccccc;fill-opacity:1;stroke-width:0.09730875"
         id="tspan1575" /></text>
    <text
       xml:space="preserve"
       style="font-style:normal;font-weight:normal;font-size:6.73241282px;line-height:1.25;font-family:sans-serif;letter-spacing:0px;word-spacing:0px;fill:#cccccc;fill-opacity:1;stroke:none;stroke-width:0.16831031"
       x="130.17148"
       y="233.74826"
       id="text1579"><tspan
         sodipodi:role="line"
         x="130.17148"
         y="233.74826"
         style="fill:#cccccc;fill-opacity:1;stroke-width:0.16831031"
         id="tspan1581">ESP32</tspan></text>
    <path
       style="fill:none;stroke:#cccccc;stroke-width:0.83999997;stroke-linecap:round;stroke-linejoin:round;stroke-miterlimit:4;stroke-dasharray:none;stroke-opacity:1"
       d="m 43.26512,191.20731 c 0.05257,-9.19951 9.882909,-10.61886 9.882909,-10.61886"
       id="path1585"
       inkscape:connector-curvature="0"
       sodipodi:nodetypes="cc" />
    <path
       style="fill:none;stroke:#cccccc;stroke-width:1.25942576;stroke-linecap:round;stroke-linejoin:round;stroke-miterlimit:4;stroke-dasharray:none;stroke-opacity:1"
       d="m 39.856119,192.65027 c 0.07882,-13.79297 14.817609,-15.92103 14.817609,-15.92103"
       id="path1585-0"
       inkscape:connector-curvature="0"
       sodipodi:nodetypes="cc" />
    <path
       style="fill:none;stroke:#cccccc;stroke-width:1.78256011;stroke-linecap:round;stroke-linejoin:round;stroke-miterlimit:4;stroke-dasharray:none;stroke-opacity:1"
       d="M 34.772343,194.21804 C 34.883903,174.69581 55.744822,171.6838 55.744822,171.6838"
       id="path1585-0-0"
       inkscape:connector-curvature="0"
       sodipodi:nodetypes="cc" />
    <path
       style="fill:none;stroke:#cccccc;stroke-width:2.25249529;stroke-linecap:round;stroke-linejoin:round;stroke-miterlimit:4;stroke-dasharray:none;stroke-opacity:1"
       d="m 29.199897,195.18244 c 0.14097,-24.66886 26.501441,-28.47493 26.501441,-28.47493"
       id="path1585-0-0-2"
       inkscape:connector-curvature="0"
       sodipodi:nodetypes="cc" />
  </g>
</svg>
