<?xml version="1.0" encoding="UTF-8" standalone="no"?>
<!-- Created with Inkscape (http://www.inkscape.org/) -->

<svg
   xmlns:dc="http://purl.org/dc/elements/1.1/"
   xmlns:cc="http://creativecommons.org/ns#"
   xmlns:rdf="http://www.w3.org/1999/02/22-rdf-syntax-ns#"
   xmlns:svg="http://www.w3.org/2000/svg"
   xmlns="http://www.w3.org/2000/svg"
   xmlns:sodipodi="http://sodipodi.sourceforge.net/DTD/sodipodi-0.dtd"
   xmlns:inkscape="http://www.inkscape.org/namespaces/inkscape"
   width="70.830139mm"
   height="104.59695mm"
   viewBox="0 0 70.830139 104.59695"
   version="1.1"
   id="svg8"
   inkscape:version="0.92.3 (2405546, 2018-03-11)"
   sodipodi:docname="powergrid.svg">
  <defs
     id="defs2" />
  <sodipodi:namedview
     id="base"
     pagecolor="#ffffff"
     bordercolor="#666666"
     borderopacity="1.0"
     inkscape:pageopacity="0.0"
     inkscape:pageshadow="2"
     inkscape:zoom="1.4"
     inkscape:cx="223.85845"
     inkscape:cy="-6.3347245"
     inkscape:document-units="mm"
     inkscape:current-layer="layer1"
     showgrid="false"
     fit-margin-top="0"
     fit-margin-left="0"
     fit-margin-right="0"
     fit-margin-bottom="0"
     inkscape:window-width="1366"
     inkscape:window-height="705"
     inkscape:window-x="0"
     inkscape:window-y="30"
     inkscape:window-maximized="1" />
  <metadata
     id="metadata5">
    <rdf:RDF>
      <cc:Work
         rdf:about="">
        <dc:format>image/svg+xml</dc:format>
        <dc:type
           rdf:resource="http://purl.org/dc/dcmitype/StillImage" />
        <dc:title></dc:title>
      </cc:Work>
    </rdf:RDF>
  </metadata>
  <g
     inkscape:label="Layer 1"
     inkscape:groupmode="layer"
     id="layer1"
     transform="translate(-114.39633,-83.801327)">
    <path
       style="fill:#cccccc;fill-opacity:1;stroke-width:0.44510007"
       d="m 123.70544,83.801327 c -2.39172,1.665872 -8.24826,3.890282 -8.24826,3.890282 0,0 6.06407,0.131411 6.16707,1.893411 0,0.816002 -0.29673,0.8902 -3.5608,0.8902 -2.86841,0 -3.5608,0.12988 -3.5608,0.66765 -0.24579,1.43754 -0.0585,1.00071 0.49031,2.163779 0.57421,0.402161 1.46044,0.584728 2.15856,0.4451 0.71429,-0.142824 1.36595,-4.45e-4 1.64218,0.358168 0.95825,1.244424 2.83055,7.498973 2.83055,9.455773 -0.83551,4.31132 -0.68046,4.10134 -0.82847,5.40205 0.0883,0.23405 1.46273,0.45374 3.05398,0.48857 l 2.89315,0.0635 3.18698,3.05224 c 1.75309,1.67883 4.20286,3.65315 5.44379,4.38753 2.06853,1.22424 2.25706,1.47417 2.26549,3.00443 0.007,1.18301 0.20314,1.66913 0.67634,1.66913 1.88752,0.23738 1.68764,0.0174 3.14178,0 0.63982,0 1.01911,0.19362 0.86586,0.44162 -0.15006,0.24282 0.63946,2.24742 1.75432,4.45448 1.78573,3.53524 2.02729,4.3567 2.02729,6.90253 0.44353,4.42798 0.008,2.85193 0,5.56027 0,0.18769 -0.42115,0.45152 -0.9354,0.58593 -0.51488,0.13458 -0.80237,0.45822 -0.6407,0.71982 0.37425,0.60559 6.58642,0.62732 7.18854,0.0252 0.30287,-0.30288 1.34046,0.67808 3.17742,3.00442 1.50013,1.89977 3.61514,4.32145 4.69963,5.38119 1.86925,1.82654 1.9595,2.02998 1.7465,3.91984 -0.19821,1.75838 -0.11204,2.02355 0.72676,2.24289 3.61039,0.1358 3.7152,-0.29375 4.86741,0.67891 0.41543,0.41542 0.653,0.41542 1.06842,0 0.29377,-0.29377 0.99481,-0.53464 1.55785,-0.53464 h 1.02408 v 8.0118 c 0.007,9.59415 -0.89446,9.55188 -1.3353,12.80184 0,0.77614 7.6302,0.59269 7.88922,-0.18951 0.0944,-0.28523 -0.2402,-0.64971 -0.74328,-0.80935 -0.88627,-0.28129 -0.91454,-0.59367 -0.91454,-10.05214 v -9.76264 c 3.1612,-0.11507 6.4244,-0.002 8.93243,-0.13649 0.73905,-0.19326 0.89281,-0.53348 0.77892,-1.72128 l -0.1417,-1.48048 -4.78483,-0.12606 -4.78482,-0.12605 v -1.32052 c 0,-1.17019 0.15174,-1.32051 1.3353,-1.32053 2.1726,-0.001 2.22445,0.0191 3.78335,0 1.00155,0 1.11275,-0.17803 1.11275,-1.7804 v -1.7804 h -3.1157 c -2.80687,0 -3.1157,-0.087 -3.1157,-0.87976 0,-0.48397 -0.52585,-1.22465 -1.16839,-1.64565 -1.10281,-0.72331 -1.2422,-0.72185 -2.49412,-0.004 l -1.32661,0.76068 -2.9201,-2.0838 c -5.79869,-4.13786 -12.87993,-11.98758 -15.53591,-17.22242 -1.62372,-3.57924 3.43011,-1.58628 6.1975,-2.64626 1.00527,-0.37091 1.06234,-2.78196 0.0748,-3.16091 -0.38722,-0.14854 -2.29002,-0.26949 -4.22845,-0.26949 -3.22765,0 -3.52429,-0.075 -3.52429,-0.8902 1.46087,-0.45194 2.48598,-0.59967 4.22845,-0.95627 0.68768,-0.13055 0.8902,-0.52082 0.8902,-1.71955 v -1.55263 l -2.57932,-0.13475 c -2.22281,-0.11557 -2.63329,-0.27622 -2.97052,-1.16317 -0.2152,-0.56602 -0.76421,-1.12649 -1.22055,-1.24576 -1.28335,-0.33561 -2.79926,0.41044 -2.79926,1.3779 0,0.75672 -0.37445,0.88587 -2.95574,1.01625 l -2.95661,0.14953 -2.86447,-3.09571 c -3.30629,-3.57298 -6.03053,-7.94057 -7.53192,-12.076818 -1.37527,-3.788906 -1.36528,-4.364705 0.0713,-4.004161 1.67882,0.421359 2.96634,-0.444486 2.80013,-1.88385 -0.13576,-1.175657 -0.19507,-1.195784 -3.8103,-1.323132 -3.30609,-0.116411 -3.67207,-0.216194 -3.67207,-1.001475 0,-0.625584 0.30383,-0.872814 1.07537,-0.872814 1.79592,0.107643 1.16758,0.03565 2.96791,0 0.64416,0 0.85282,-0.315202 0.85282,-1.287488 0,-1.462376 -0.61999,-1.827341 -3.10005,-1.827345 -1.31776,0 -1.74428,-0.197803 -1.92558,-0.891068 -0.15074,-0.576142 -0.71908,-0.87415 -1.35009,-0.887592 z m 1.97601,3.161777 c 0.56472,-4.45e-4 1.14652,0.02301 1.60827,0.07128 0.92346,0.0964 0.27665,0.177404 -1.43701,0.179086 -1.71372,0.0018 -2.46884,-0.07738 -1.67869,-0.175605 0.39508,-0.04913 0.94271,-0.07426 1.50743,-0.07476 z m -2.24289,4.900446 c 1.45213,-1.52e-4 2.92225,0.01945 4.06067,0.05999 2.27682,0.08092 0.53446,0.148151 -3.87202,0.148654 -4.4065,4.46e-4 -6.26945,-0.06636 -4.13978,-0.147786 1.06482,-0.04073 2.499,-0.06068 3.95113,-0.06085 z m 1.61436,1.656088 1.24489,0.146914 c 1.39712,0.165199 1.46057,0.260442 3.06962,4.606613 1.67448,4.522925 4.03939,8.269335 7.71797,12.228955 1.77841,1.91428 3.23306,3.87992 3.23306,4.36841 0.92829,2.23261 3.89691,1.37734 4.88219,2.51673 0.99865,1.20329 -2.19721,0.77976 -4.29017,-0.56855 -7.53675,-4.85527 -14.83973,-14.69875 -15.5872,-21.010113 z m -4.31887,0.07128 c 0.79129,0 0.8902,0.296735 0.8902,2.670601 0,1.468821 -0.0922,2.6706 -0.20516,2.6706 -0.20945,0 -1.57524,-4.315094 -1.57524,-4.976949 0,-0.200291 0.4006,-0.364252 0.8902,-0.364252 z m 4.46318,5.564619 1.78561,3.275663 c 3.20955,5.88814 8.08396,11.33649 12.86618,14.38143 l 1.97861,1.25966 -1.75606,-0.002 c -0.99612,-8.9e-4 -2.43118,-0.40834 -3.31478,-0.94149 -3.16418,-1.90922 -7.50551,-5.75341 -9.50967,-8.41952 -2.03653,-2.70921 -2.06271,-2.78592 -2.05598,-6.14881 z m 23.10695,14.910853 c 3.87506,0 6.25748,0.16951 6.25748,0.4451 0,0.27467 -2.29111,0.44511 -5.98277,0.4451 -3.50827,0 -6.09615,-0.18407 -6.25748,-0.4451 -0.17842,-0.28861 1.92435,-0.44509 5.98277,-0.4451 z m -5.00303,5.38554 c 0.67903,0 1.51384,0.13426 2.13596,0.40164 0.6698,0.28782 0.36675,0.39025 -1.22402,0.4138 -1.16282,0.0171 -2.11423,-0.169 -2.11423,-0.4138 0,-0.26733 0.52326,-0.40164 1.20229,-0.40164 z m 8.57339,0.008 c 2.68373,-0.0101 5.40987,0.11742 5.58114,0.39467 0.1718,0.28453 -1.72359,0.4425 -5.31599,0.4425 -3.07449,0 -5.58983,-0.17979 -5.58983,-0.39903 0,-0.27787 2.64096,-0.42724 5.32468,-0.43814 z m -12.56799,8.9e-4 c 0.23749,0 0.62661,0.1309 1.23446,0.39206 0.78883,0.33896 0.75082,0.38605 -0.33383,0.41381 -0.67321,0.0171 -1.22402,-0.169 -1.22402,-0.41381 0,-0.26117 0.086,-0.39206 0.32339,-0.39206 z m 5.87585,2.17246 c 0.85065,0 0.92236,0.2584 0.92236,3.33825 0,1.83605 -0.0976,3.33826 -0.21646,3.33825 -0.11894,0 -0.8265,-1.20987 -1.57263,-2.68798 -1.19029,-2.3579 -1.27687,-2.76727 -0.7059,-3.33825 0.35793,-0.35792 1.06552,-0.65026 1.57263,-0.65027 z m 5.38988,1.11275 1.32661,2.40633 c 3.071,5.57138 10.19722,13.28111 15.67326,16.95553 1.64176,1.10162 2.99079,2.25333 2.99921,2.55932 h -8.9e-4 c 0.0101,0.39218 -0.88297,0.55638 -3.0279,0.55638 h -3.04268 l -2.87576,-3.00443 c -3.4568,-3.612 -6.22265,-7.19871 -9.00198,-11.67257 -1.75033,-2.8175 -2.06532,-3.66916 -2.05859,-5.56375 z m -0.0174,5.87063 1.8369,2.85056 c 2.57012,3.98886 7.00881,9.56694 9.6931,12.18113 1.66854,1.62497 2.2681,2.54036 2.2681,3.46344 0,0.80643 0.27832,1.34119 0.77892,1.49613 0.42841,0.13256 1.15274,0.44321 1.61002,0.69025 0.57032,0.30812 0.98315,0.29727 1.31356,-0.033 0.26489,-0.2649 0.94179,-0.48161 1.50482,-0.48161 0.84075,0 1.02408,0.23868 1.02408,1.3353 v 1.3353 h -3.76857 -3.76944 l -2.64974,-2.78188 c -2.83159,-2.97234 -6.45878,-7.39332 -8.55601,-10.42855 -1.1771,-1.70343 -1.28574,-2.18832 -1.28574,-5.7437 z m 23.1452,17.94136 c 4.15426,0 6.6765,0.16823 6.6765,0.4451 0,0.27687 -2.52224,0.4451 -6.6765,0.4451 -4.15426,0 -6.6765,-0.16823 -6.6765,-0.4451 0,-0.27688 2.52224,-0.4451 6.6765,-0.4451 z m -0.66765,6.24792 c 6.88435,-0.0264 10.45985,0.11658 10.45985,0.41728 0,0.29973 -3.60163,0.4564 -10.45985,0.4564 -6.20227,0 -10.45985,-0.16928 -10.45985,-0.41641 0,-0.24595 4.28625,-0.43355 10.45985,-0.45727 z m -3.93374,2.87576 c -0.17254,0.0415 -0.55418,0.8693 -0.99714,2.44806 -1.52948,5.45102 -5.67519,10.15126 -10.39291,11.78298 -2.47525,0.85602 -6.26356,0.91808 -6.26356,0.10258 0,-0.4883 -14.09489,-12.25374 -15.21773,-12.70274 -0.50046,-0.20012 -15.46842,11.8067 -15.80193,12.67579 -0.30777,0.80204 2.6792,2.12379 2.6792,2.12379 l 0.14788,16.19747 14.36404,0.0887 0.0435,-1.6387 v -8.75421 h 6.82863 v 10.39291 h 1.83778 c 2.48274,-2.93056 6.75456,-10.92374 2.87838,-5.33254 -0.27085,0.42849 -0.41833,-1.39174 -0.42337,-5.21081 -0.007,-5.29122 0.0698,-5.87191 0.77197,-5.88366 1.38679,-0.0236 6.52184,-0.92963 8.12308,-1.43354 5.19467,-1.63474 9.67857,-6.69047 11.16314,-12.58625 0.39459,-1.56706 0.4316,-2.31148 0.25906,-2.26983 z m -38.12822,14.7509 c 0.60698,0 1.66913,0.26613 1.66913,0.72763 0,0.57345 -1.0257,0.96931 -1.66913,0.96931 -0.64343,0 -1.66912,-0.19646 -1.66912,-0.96931 0,-0.46152 1.06214,-0.72763 1.66912,-0.72763 z m 9.7922,0.60679 c 2.81897,0 3.1157,0.0848 3.1157,0.8902 0,0.80543 -0.29673,0.8902 -3.1157,0.8902 -2.81898,0 -3.1157,-0.0848 -3.1157,-0.8902 0,-0.80537 0.29672,-0.8902 3.1157,-0.8902 z m -9.7922,2.2255 c 2.81896,0 3.1157,0.0848 3.1157,0.8902 0,0.80543 -0.29674,0.89021 -3.1157,0.89021 -2.81896,0 -3.1157,-0.0848 -3.1157,-0.89021 0,-0.80539 0.29674,-0.89019 3.1157,-0.8902 z m 10.04083,0.8902 c 1.61453,0 2.86707,0.19448 2.86707,0.44511 0,0.25469 -1.34387,0.4451 -3.14178,0.4451 -1.98128,0 -3.04053,-0.16435 -2.86707,-0.4451 0.15124,-0.24478 1.56499,-0.44511 3.14178,-0.44511 z m -13.27041,4.07546 h 2.8662 v 2.41675 h -2.8662 z m 3.8216,0 h 2.8662 v 2.41675 h -2.8662 z m -3.85029,3.45648 h 2.8662 v 2.41675 h -2.8662 z m 3.85029,0 h 2.8662 v 2.41675 h -2.8662 z m 17.37368,3.30434 c 0.0405,0.007 0.0894,0.0747 0.14257,0.20777 0.12853,0.32131 0.11226,0.70495 -0.0357,0.85282 -0.14787,0.14787 -0.25318,-0.11506 -0.23385,-0.58419 0.0134,-0.32407 0.0595,-0.48663 0.12692,-0.4764 z"
       id="path826"
       inkscape:connector-curvature="0"
       sodipodi:nodetypes="cccsccccccccccccccccccccccccccccccccsccccccsccscsscccccccsccsccccscccccccsccscccccccccsccccscccccccsccssccscccccccscccscssscscscsccssccccccccscccccscccscscccsscccccscsccssccssccssscccccccccsscccscsssssssssscssccssccscccccccccccccscccscccsccccccc" />
    <text
       xml:space="preserve"
       style="font-style:normal;font-weight:normal;font-size:80.32196045px;line-height:1.25;font-family:sans-serif;letter-spacing:0px;word-spacing:0px;fill:#c10000;fill-opacity:1;stroke:none;stroke-width:2.00804901"
       x="139.7738"
       y="188.04999"
       id="text900"><tspan
         sodipodi:role="line"
         id="tspan898"
         x="139.7738"
         y="188.04999"
         style="fill:#c10000;fill-opacity:1;stroke-width:2.00804901">x</tspan></text>
  </g>
</svg>
